<svg xmlns="http://www.w3.org/2000/svg" xmlns:xlink="http://www.w3.org/1999/xlink" width="267" zoomAndPan="magnify" viewBox="0 0 200.25 70.499998" height="94" preserveAspectRatio="xMidYMid meet" version="1.0"><defs><g/><clipPath id="9b8d9c9bf6"><path d="M 80.800781 0 L 108 0 L 108 26.066406 L 80.800781 26.066406 Z M 80.800781 0 " clip-rule="nonzero"/></clipPath></defs><g fill="#ac1625" fill-opacity="1"><g transform="translate(37.765137, 47.41867)"><g><path d="M 8.859375 -22.1875 C 9.066406 -22.507812 9.367188 -22.789062 9.765625 -23.03125 C 10.160156 -23.269531 10.546875 -23.414062 10.921875 -23.46875 C 11.546875 -23.582031 12.078125 -23.5 12.515625 -23.21875 C 12.609375 -23.332031 12.734375 -23.394531 12.890625 -23.40625 C 13.054688 -23.425781 13.1875 -23.351562 13.28125 -23.1875 C 13.65625 -22.601562 13.675781 -21.992188 13.34375 -21.359375 C 13.019531 -20.722656 12.546875 -20.300781 11.921875 -20.09375 C 11.671875 -20 11.320312 -19.945312 10.875 -19.9375 C 10.4375 -19.925781 10.039062 -19.992188 9.6875 -20.140625 C 9.34375 -20.296875 9.160156 -20.554688 9.140625 -20.921875 C 8.910156 -21.066406 8.757812 -21.25 8.6875 -21.46875 C 8.625 -21.6875 8.679688 -21.925781 8.859375 -22.1875 Z M 12.234375 -21 C 11.890625 -20.863281 11.492188 -20.800781 11.046875 -20.8125 C 10.609375 -20.820312 10.21875 -20.875 9.875 -20.96875 C 9.875 -20.851562 9.835938 -20.769531 9.765625 -20.71875 C 10.140625 -20.488281 10.566406 -20.40625 11.046875 -20.46875 C 11.535156 -20.539062 11.929688 -20.71875 12.234375 -21 Z M 15.15625 -6.046875 C 15.0625 -5.265625 14.859375 -4.460938 14.546875 -3.640625 C 14.234375 -2.816406 13.765625 -2.132812 13.140625 -1.59375 C 12.304688 -0.851562 11.414062 -0.472656 10.46875 -0.453125 C 9.957031 -0.359375 9.421875 -0.359375 8.859375 -0.453125 C 8.585938 -0.429688 8.253906 -0.453125 7.859375 -0.515625 C 7.140625 -0.679688 6.445312 -0.988281 5.78125 -1.4375 C 5.125 -1.894531 4.566406 -2.410156 4.109375 -2.984375 C 3.085938 -4.148438 2.34375 -5.472656 1.875 -6.953125 C 1.570312 -7.835938 1.375 -8.695312 1.28125 -9.53125 C 1.21875 -9.625 1.160156 -9.710938 1.109375 -9.796875 C 1.046875 -10.285156 0.988281 -10.882812 0.9375 -11.59375 C 0.894531 -12.300781 0.960938 -12.972656 1.140625 -13.609375 C 1.328125 -14.242188 1.710938 -14.691406 2.296875 -14.953125 C 3.109375 -15.273438 3.769531 -15.125 4.28125 -14.5 C 4.507812 -14.238281 4.644531 -13.953125 4.6875 -13.640625 C 4.738281 -13.328125 4.738281 -13.007812 4.6875 -12.6875 C 4.6875 -12.664062 4.691406 -12.648438 4.703125 -12.640625 C 4.722656 -12.628906 4.734375 -12.609375 4.734375 -12.578125 C 4.703125 -11.929688 4.71875 -11.289062 4.78125 -10.65625 C 4.84375 -10.019531 4.953125 -9.398438 5.109375 -8.796875 C 5.296875 -8.078125 5.550781 -7.421875 5.875 -6.828125 C 6.195312 -6.234375 6.566406 -5.671875 6.984375 -5.140625 C 7.242188 -4.960938 7.523438 -4.816406 7.828125 -4.703125 C 8.128906 -4.597656 8.425781 -4.570312 8.71875 -4.625 C 9.1875 -4.664062 9.546875 -4.875 9.796875 -5.25 C 10.054688 -5.625 10.234375 -5.992188 10.328125 -6.359375 C 10.460938 -6.960938 10.535156 -7.566406 10.546875 -8.171875 C 10.554688 -8.773438 10.550781 -9.363281 10.53125 -9.9375 C 10.507812 -10.613281 10.476562 -11.269531 10.4375 -11.90625 C 10.40625 -12.539062 10.359375 -13.1875 10.296875 -13.84375 L 10.1875 -14.703125 C 9.8125 -14.703125 9.4375 -14.707031 9.0625 -14.71875 C 8.695312 -14.726562 8.316406 -14.75 7.921875 -14.78125 C 7.742188 -14.800781 7.492188 -14.8125 7.171875 -14.8125 C 6.859375 -14.8125 6.570312 -14.863281 6.3125 -14.96875 C 6.0625 -15.070312 5.914062 -15.265625 5.875 -15.546875 C 5.851562 -15.796875 5.84375 -16.046875 5.84375 -16.296875 C 5.84375 -16.554688 5.832031 -16.800781 5.8125 -17.03125 C 5.8125 -17.21875 5.800781 -17.429688 5.78125 -17.671875 C 5.769531 -17.921875 5.789062 -18.148438 5.84375 -18.359375 C 5.90625 -18.640625 6.085938 -18.835938 6.390625 -18.953125 C 6.347656 -19.203125 6.375 -19.394531 6.46875 -19.53125 C 6.488281 -19.601562 6.535156 -19.648438 6.609375 -19.671875 C 7.347656 -19.460938 8.101562 -19.332031 8.875 -19.28125 C 9.65625 -19.238281 10.441406 -19.253906 11.234375 -19.328125 L 11.296875 -19.328125 C 11.316406 -19.328125 11.328125 -19.328125 11.328125 -19.328125 C 11.660156 -19.378906 11.992188 -19.425781 12.328125 -19.46875 C 12.660156 -19.507812 12.988281 -19.554688 13.3125 -19.609375 L 13.3125 -19.53125 C 13.332031 -19.507812 13.34375 -19.492188 13.34375 -19.484375 C 13.34375 -19.472656 13.359375 -19.457031 13.390625 -19.4375 C 13.410156 -19.53125 13.457031 -19.59375 13.53125 -19.625 C 13.613281 -19.65625 13.691406 -19.648438 13.765625 -19.609375 C 13.785156 -19.117188 13.820312 -18.359375 13.875 -17.328125 C 13.9375 -16.296875 14.003906 -15.140625 14.078125 -13.859375 C 14.148438 -12.585938 14.203125 -11.320312 14.234375 -10.0625 C 14.265625 -8.800781 14.273438 -7.6875 14.265625 -6.71875 C 14.253906 -5.757812 14.203125 -5.082031 14.109375 -4.6875 C 13.878906 -3.757812 13.582031 -3.082031 13.21875 -2.65625 C 12.863281 -2.226562 12.628906 -1.96875 12.515625 -1.875 C 12.703125 -1.988281 12.894531 -2.125 13.09375 -2.28125 C 13.289062 -2.445312 13.46875 -2.613281 13.625 -2.78125 C 14.132812 -3.382812 14.4375 -4.117188 14.53125 -4.984375 C 14.625 -5.859375 14.671875 -6.863281 14.671875 -8 C 14.648438 -9.5 14.578125 -11.1875 14.453125 -13.0625 C 14.335938 -14.945312 14.222656 -16.941406 14.109375 -19.046875 C 14.109375 -19.078125 14.15625 -19.109375 14.25 -19.140625 C 14.34375 -19.171875 14.390625 -19.175781 14.390625 -19.15625 C 14.484375 -18.039062 14.582031 -16.925781 14.6875 -15.8125 C 14.789062 -14.707031 14.878906 -13.609375 14.953125 -12.515625 C 15.015625 -11.453125 15.097656 -10.375 15.203125 -9.28125 C 15.304688 -8.195312 15.289062 -7.117188 15.15625 -6.046875 Z M 10.046875 -15.71875 C 9.628906 -15.71875 9.21875 -15.734375 8.8125 -15.765625 C 8.40625 -15.796875 8.003906 -15.859375 7.609375 -15.953125 C 7.378906 -16.023438 7.164062 -16.117188 6.96875 -16.234375 C 6.769531 -16.347656 6.625 -16.507812 6.53125 -16.71875 C 6.53125 -16.582031 6.535156 -16.445312 6.546875 -16.3125 C 6.566406 -16.1875 6.578125 -16.054688 6.578125 -15.921875 C 6.597656 -15.734375 6.722656 -15.640625 6.953125 -15.640625 C 7.179688 -15.640625 7.351562 -15.640625 7.46875 -15.640625 C 7.914062 -15.640625 8.351562 -15.640625 8.78125 -15.640625 C 9.207031 -15.640625 9.628906 -15.648438 10.046875 -15.671875 Z M 8.59375 -2.984375 C 8.382812 -2.984375 8.1875 -3.003906 8 -3.046875 C 7.8125 -3.097656 7.625 -3.160156 7.4375 -3.234375 C 7.8125 -2.953125 8.207031 -2.753906 8.625 -2.640625 C 9.039062 -2.523438 9.46875 -2.59375 9.90625 -2.84375 C 10.164062 -2.988281 10.390625 -3.148438 10.578125 -3.328125 C 10.773438 -3.515625 10.96875 -3.710938 11.15625 -3.921875 C 10.8125 -3.628906 10.414062 -3.394531 9.96875 -3.21875 C 9.53125 -3.039062 9.070312 -2.960938 8.59375 -2.984375 Z M 8.59375 -2.984375 "/></g></g></g><g fill="#ac1625" fill-opacity="1"><g transform="translate(53.758932, 47.41867)"><g><path d="M 12.71875 -1.046875 C 12.582031 -1.085938 12.425781 -1.328125 12.25 -1.765625 C 12.082031 -2.210938 11.898438 -2.757812 11.703125 -3.40625 C 11.503906 -4.050781 11.316406 -4.722656 11.140625 -5.421875 C 10.960938 -6.117188 10.804688 -6.742188 10.671875 -7.296875 C 10.535156 -7.859375 10.441406 -8.265625 10.390625 -8.515625 L 7.6875 -8.484375 C 7.425781 -7.441406 7.203125 -6.40625 7.015625 -5.375 C 6.835938 -4.34375 6.703125 -3.289062 6.609375 -2.21875 C 6.609375 -2.007812 6.507812 -1.90625 6.3125 -1.90625 C 6.113281 -1.90625 6.023438 -2.007812 6.046875 -2.21875 C 6.140625 -3.269531 6.269531 -4.320312 6.4375 -5.375 C 6.613281 -6.425781 6.867188 -7.460938 7.203125 -8.484375 L 6.890625 -8.484375 C 6.765625 -8.066406 6.644531 -7.5625 6.53125 -6.96875 C 6.414062 -6.375 6.304688 -5.789062 6.203125 -5.21875 C 6.097656 -4.65625 6.007812 -4.179688 5.9375 -3.796875 C 5.875 -3.421875 5.84375 -3.234375 5.84375 -3.234375 L 5.625 -1.671875 C 5.5625 -0.878906 5.296875 -0.3125 4.828125 0.03125 C 4.367188 0.382812 3.859375 0.523438 3.296875 0.453125 C 2.742188 0.378906 2.273438 0.113281 1.890625 -0.34375 C 1.515625 -0.8125 1.382812 -1.453125 1.5 -2.265625 C 1.632812 -3.285156 1.796875 -4.300781 1.984375 -5.3125 C 2.171875 -6.332031 2.390625 -7.34375 2.640625 -8.34375 C 2.484375 -8.320312 2.320312 -8.304688 2.15625 -8.296875 C 1.988281 -8.285156 1.835938 -8.28125 1.703125 -8.28125 C 1.742188 -8.394531 1.753906 -8.5 1.734375 -8.59375 C 1.179688 -8.726562 0.773438 -9.023438 0.515625 -9.484375 C 0.265625 -9.953125 0.195312 -10.46875 0.3125 -11.03125 C 0.425781 -11.601562 0.75 -12.125 1.28125 -12.59375 C 1.820312 -13.070312 2.613281 -13.394531 3.65625 -13.5625 C 3.90625 -14.71875 4.179688 -15.859375 4.484375 -16.984375 C 4.785156 -18.109375 5.15625 -19.203125 5.59375 -20.265625 C 5.800781 -20.734375 6.03125 -21.238281 6.28125 -21.78125 C 6.539062 -22.320312 6.863281 -22.796875 7.25 -23.203125 C 7.632812 -23.609375 8.113281 -23.8125 8.6875 -23.8125 C 8.988281 -23.832031 9.289062 -23.75 9.59375 -23.5625 C 9.894531 -23.382812 10.113281 -23.15625 10.25 -22.875 C 10.757812 -22.851562 11.179688 -22.671875 11.515625 -22.328125 C 11.859375 -21.992188 12.050781 -21.550781 12.09375 -21 C 12.144531 -20.300781 12.203125 -19.597656 12.265625 -18.890625 C 12.335938 -18.179688 12.410156 -17.492188 12.484375 -16.828125 C 12.503906 -16.804688 12.523438 -16.796875 12.546875 -16.796875 C 12.566406 -17.398438 12.59375 -17.992188 12.625 -18.578125 C 12.664062 -19.171875 12.722656 -19.757812 12.796875 -20.34375 C 12.796875 -20.4375 12.8125 -20.226562 12.84375 -19.71875 C 12.875 -19.207031 12.910156 -18.550781 12.953125 -17.75 C 13.003906 -16.945312 13.050781 -16.144531 13.09375 -15.34375 C 13.144531 -14.550781 13.207031 -13.882812 13.28125 -13.34375 C 13.945312 -13.28125 14.46875 -13.054688 14.84375 -12.671875 C 15.21875 -12.285156 15.445312 -11.84375 15.53125 -11.34375 C 15.625 -10.851562 15.578125 -10.363281 15.390625 -9.875 C 15.210938 -9.382812 14.878906 -8.988281 14.390625 -8.6875 C 14.617188 -7.664062 14.859375 -6.507812 15.109375 -5.21875 C 15.367188 -3.9375 15.570312 -2.773438 15.71875 -1.734375 C 15.8125 -0.953125 15.742188 -0.359375 15.515625 0.046875 C 15.296875 0.453125 15.003906 0.675781 14.640625 0.71875 C 14.285156 0.769531 13.925781 0.644531 13.5625 0.34375 C 13.207031 0.0390625 12.925781 -0.421875 12.71875 -1.046875 Z M 7.578125 -13 C 7.835938 -13.050781 8.164062 -13.082031 8.5625 -13.09375 C 8.96875 -13.101562 9.289062 -13.117188 9.53125 -13.140625 C 9.476562 -13.441406 9.421875 -13.867188 9.359375 -14.421875 C 9.304688 -14.984375 9.238281 -15.582031 9.15625 -16.21875 C 9.082031 -16.851562 8.984375 -17.4375 8.859375 -17.96875 C 8.585938 -17 8.347656 -16.128906 8.140625 -15.359375 C 7.929688 -14.597656 7.742188 -13.8125 7.578125 -13 Z M 7.578125 -13 "/></g></g></g><g fill="#ac1625" fill-opacity="1"><g transform="translate(70.100416, 47.41867)"><g><path d="M 15.09375 0.109375 C 14.882812 0.242188 14.648438 0.242188 14.390625 0.109375 C 13.929688 -0.0976562 13.617188 -0.441406 13.453125 -0.921875 C 13.296875 -1.398438 13.171875 -1.859375 13.078125 -2.296875 L 12.859375 -3.484375 L 6.8125 -14.28125 C 6.71875 -14.40625 6.625 -14.535156 6.53125 -14.671875 C 6.4375 -14.804688 6.347656 -14.929688 6.265625 -15.046875 C 6.285156 -13.867188 6.289062 -12.6875 6.28125 -11.5 C 6.269531 -10.320312 6.265625 -9.144531 6.265625 -7.96875 C 6.304688 -7.269531 6.332031 -6.570312 6.34375 -5.875 C 6.351562 -5.175781 6.367188 -4.484375 6.390625 -3.796875 C 6.421875 -3.441406 6.445312 -3.015625 6.46875 -2.515625 C 6.488281 -2.015625 6.4375 -1.566406 6.3125 -1.171875 C 6.1875 -0.785156 5.878906 -0.554688 5.390625 -0.484375 C 5.179688 -0.140625 4.894531 0.09375 4.53125 0.21875 C 4.175781 0.351562 3.800781 0.363281 3.40625 0.25 C 3.03125 0.15625 2.707031 -0.0664062 2.4375 -0.421875 C 2.34375 -1.878906 2.265625 -3.335938 2.203125 -4.796875 C 2.148438 -6.253906 2.097656 -7.710938 2.046875 -9.171875 C 2.003906 -10.359375 1.96875 -11.546875 1.9375 -12.734375 C 1.914062 -13.929688 1.882812 -15.125 1.84375 -16.3125 C 1.820312 -17.070312 1.800781 -17.832031 1.78125 -18.59375 C 1.769531 -19.363281 1.789062 -20.117188 1.84375 -20.859375 C 2.070312 -21.046875 2.289062 -21.148438 2.5 -21.171875 C 2.5 -21.453125 2.59375 -21.71875 2.78125 -21.96875 C 3.0625 -22.320312 3.375 -22.488281 3.71875 -22.46875 C 4.0625 -22.457031 4.421875 -22.332031 4.796875 -22.09375 C 5.171875 -21.851562 5.507812 -21.578125 5.8125 -21.265625 C 6.113281 -20.953125 6.34375 -20.691406 6.5 -20.484375 C 7.101562 -19.691406 7.65625 -18.882812 8.15625 -18.0625 C 8.65625 -17.238281 9.132812 -16.398438 9.59375 -15.546875 C 9.988281 -14.867188 10.367188 -14.179688 10.734375 -13.484375 C 11.109375 -12.796875 11.472656 -12.09375 11.828125 -11.375 C 11.867188 -11.28125 11.890625 -11.160156 11.890625 -11.015625 L 12.453125 -9.9375 C 12.359375 -10.820312 12.226562 -11.710938 12.0625 -12.609375 C 11.90625 -13.515625 11.742188 -14.410156 11.578125 -15.296875 C 11.460938 -15.921875 11.347656 -16.546875 11.234375 -17.171875 C 11.117188 -17.796875 10.96875 -18.421875 10.78125 -19.046875 C 10.6875 -19.367188 10.597656 -19.695312 10.515625 -20.03125 C 10.429688 -20.375 10.484375 -20.71875 10.671875 -21.0625 C 10.835938 -21.34375 11.035156 -21.550781 11.265625 -21.6875 C 11.265625 -21.71875 11.269531 -21.734375 11.28125 -21.734375 C 11.289062 -21.734375 11.296875 -21.742188 11.296875 -21.765625 C 11.503906 -22.160156 11.820312 -22.359375 12.25 -22.359375 C 12.675781 -22.359375 13.039062 -22.253906 13.34375 -22.046875 C 13.414062 -22.015625 13.5 -21.957031 13.59375 -21.875 C 13.664062 -21.539062 13.742188 -21.207031 13.828125 -20.875 C 13.921875 -20.539062 14.015625 -20.210938 14.109375 -19.890625 C 14.390625 -18.890625 14.625 -17.863281 14.8125 -16.8125 C 15 -15.757812 15.171875 -14.707031 15.328125 -13.65625 C 15.679688 -11.550781 15.960938 -9.421875 16.171875 -7.265625 C 16.378906 -5.109375 16.550781 -2.960938 16.6875 -0.828125 C 16.5 -0.578125 16.265625 -0.359375 15.984375 -0.171875 C 15.710938 0.015625 15.414062 0.109375 15.09375 0.109375 Z M 17.03125 -1.1875 C 16.988281 -1.1875 16.941406 -1.148438 16.890625 -1.078125 C 16.660156 -4.390625 16.34375 -7.695312 15.9375 -11 C 15.53125 -14.300781 14.96875 -17.566406 14.25 -20.796875 C 14.207031 -20.929688 14.242188 -21.054688 14.359375 -21.171875 C 14.453125 -21.285156 14.578125 -21.335938 14.734375 -21.328125 C 14.898438 -21.316406 14.992188 -21.21875 15.015625 -21.03125 C 15.640625 -18.019531 16.128906 -14.976562 16.484375 -11.90625 C 16.847656 -8.832031 17.019531 -5.753906 17 -2.671875 C 17.019531 -2.554688 17.035156 -2.34375 17.046875 -2.03125 C 17.054688 -1.71875 17.050781 -1.4375 17.03125 -1.1875 Z M 1.8125 -3.71875 C 1.71875 -4.945312 1.644531 -6.226562 1.59375 -7.5625 C 1.550781 -8.894531 1.503906 -10.1875 1.453125 -11.4375 C 1.410156 -12.664062 1.378906 -13.90625 1.359375 -15.15625 C 1.335938 -16.40625 1.3125 -17.65625 1.28125 -18.90625 C 1.257812 -19.207031 1.269531 -19.515625 1.3125 -19.828125 C 1.363281 -20.140625 1.445312 -20.4375 1.5625 -20.71875 C 1.539062 -20.164062 1.535156 -19.609375 1.546875 -19.046875 C 1.554688 -18.492188 1.570312 -17.941406 1.59375 -17.390625 C 1.625 -16.179688 1.65625 -14.972656 1.6875 -13.765625 C 1.71875 -12.554688 1.742188 -11.335938 1.765625 -10.109375 L 2.09375 -2.296875 C 2.09375 -2.296875 2.0625 -2.347656 2 -2.453125 C 1.9375 -2.554688 1.875 -2.976562 1.8125 -3.71875 Z M 5.703125 -5.421875 L 5.59375 -5.3125 C 5.59375 -5.3125 5.585938 -5.3125 5.578125 -5.3125 C 5.566406 -5.3125 5.550781 -5.300781 5.53125 -5.28125 L 5.5 -3.203125 C 5.5 -2.921875 5.550781 -2.585938 5.65625 -2.203125 C 5.757812 -1.828125 5.75 -1.414062 5.625 -0.96875 C 5.863281 -1.363281 5.957031 -1.757812 5.90625 -2.15625 C 5.882812 -2.476562 5.867188 -2.8125 5.859375 -3.15625 C 5.847656 -3.507812 5.816406 -3.859375 5.765625 -4.203125 C 5.765625 -4.410156 5.757812 -4.613281 5.75 -4.8125 C 5.738281 -5.007812 5.722656 -5.210938 5.703125 -5.421875 Z M 5.703125 -5.421875 "/></g></g></g><g fill="#ffffff" fill-opacity="1"><g transform="translate(87.835804, 47.41867)"><g><path d="M 16.75 -13.171875 C 17.332031 -12.296875 17.601562 -11.265625 17.5625 -10.078125 C 17.53125 -8.898438 17.390625 -7.820312 17.140625 -6.84375 C 16.910156 -5.96875 16.570312 -5.097656 16.125 -4.234375 C 15.6875 -3.378906 15.097656 -2.664062 14.359375 -2.09375 C 13.171875 -1.132812 11.785156 -0.5 10.203125 -0.1875 C 8.617188 0.125 7.09375 -0.0078125 5.625 -0.59375 C 4.21875 -1.164062 2.984375 -2.050781 1.921875 -3.25 C 0.867188 -4.445312 0.179688 -5.804688 -0.140625 -7.328125 C -0.210938 -7.703125 -0.269531 -8.082031 -0.3125 -8.46875 C -0.351562 -8.851562 -0.375 -9.226562 -0.375 -9.59375 C -0.351562 -10.863281 -0.191406 -12.109375 0.109375 -13.328125 C 0.410156 -14.546875 0.953125 -15.65625 1.734375 -16.65625 C 2.265625 -17.351562 2.882812 -18.054688 3.59375 -18.765625 C 4.300781 -19.484375 5.015625 -20.097656 5.734375 -20.609375 C 6.410156 -21.097656 7.109375 -21.550781 7.828125 -21.96875 C 8.171875 -22.175781 8.550781 -22.335938 8.96875 -22.453125 C 9.382812 -22.566406 9.800781 -22.601562 10.21875 -22.5625 C 10.59375 -22.539062 10.882812 -22.410156 11.09375 -22.171875 C 11.300781 -21.941406 11.40625 -21.675781 11.40625 -21.375 C 11.519531 -21.164062 11.578125 -20.953125 11.578125 -20.734375 C 11.578125 -20.515625 11.566406 -20.28125 11.546875 -20.03125 C 11.515625 -19.882812 11.5 -19.59375 11.5 -19.15625 C 11.5 -18.71875 11.5 -18.21875 11.5 -17.65625 C 11.5 -17.101562 11.503906 -16.578125 11.515625 -16.078125 C 11.535156 -15.578125 11.546875 -15.191406 11.546875 -14.921875 L 11.640625 -11.609375 C 11.640625 -11.304688 11.644531 -11.007812 11.65625 -10.71875 C 11.675781 -10.4375 11.695312 -10.15625 11.71875 -9.875 C 11.71875 -9.644531 11.722656 -9.40625 11.734375 -9.15625 C 11.742188 -8.914062 11.726562 -8.679688 11.6875 -8.453125 C 11.65625 -8.359375 11.585938 -8.285156 11.484375 -8.234375 C 11.378906 -8.191406 11.28125 -8.191406 11.1875 -8.234375 C 11.070312 -8.328125 11.003906 -8.382812 10.984375 -8.40625 C 10.941406 -8.382812 10.894531 -8.378906 10.84375 -8.390625 C 10.800781 -8.398438 10.753906 -8.40625 10.703125 -8.40625 C 10.472656 -8.476562 10.28125 -8.59375 10.125 -8.75 C 9.976562 -8.914062 9.847656 -9.101562 9.734375 -9.3125 C 9.660156 -9.425781 9.609375 -9.539062 9.578125 -9.65625 C 9.546875 -9.78125 9.503906 -9.890625 9.453125 -9.984375 L 9.359375 -9.984375 L 9.359375 -9.875 C 9.472656 -9.476562 9.65625 -9.066406 9.90625 -8.640625 C 10.164062 -8.210938 10.550781 -8.046875 11.0625 -8.140625 C 11.3125 -8.179688 11.488281 -8.117188 11.59375 -7.953125 C 11.695312 -7.796875 11.71875 -7.625 11.65625 -7.4375 C 11.601562 -7.25 11.445312 -7.144531 11.1875 -7.125 C 10.75 -7.082031 10.316406 -7.1875 9.890625 -7.4375 C 9.460938 -7.695312 9.15625 -8.035156 8.96875 -8.453125 C 8.738281 -8.984375 8.601562 -9.53125 8.5625 -10.09375 C 8.53125 -10.664062 8.503906 -11.226562 8.484375 -11.78125 L 8.28125 -18.5 C 8.207031 -18.445312 8.132812 -18.390625 8.0625 -18.328125 C 8 -18.273438 7.921875 -18.226562 7.828125 -18.1875 C 6.640625 -17.28125 5.707031 -16.234375 5.03125 -15.046875 C 4.363281 -13.867188 3.890625 -12.539062 3.609375 -11.0625 C 3.585938 -10.914062 3.570312 -10.828125 3.5625 -10.796875 C 3.550781 -10.765625 3.546875 -10.6875 3.546875 -10.5625 C 3.523438 -10.476562 3.515625 -10.390625 3.515625 -10.296875 C 3.515625 -10.203125 3.515625 -10.109375 3.515625 -10.015625 C 3.492188 -9.597656 3.515625 -9.191406 3.578125 -8.796875 C 3.648438 -8.398438 3.742188 -8.003906 3.859375 -7.609375 C 4.179688 -6.585938 4.664062 -5.660156 5.3125 -4.828125 C 5.96875 -3.992188 6.863281 -3.546875 8 -3.484375 C 8.0625 -3.484375 8.132812 -3.472656 8.21875 -3.453125 C 8.300781 -3.441406 8.378906 -3.4375 8.453125 -3.4375 C 9.796875 -3.488281 10.941406 -3.929688 11.890625 -4.765625 C 12.285156 -5.128906 12.585938 -5.507812 12.796875 -5.90625 C 13.117188 -6.46875 13.328125 -7.066406 13.421875 -7.703125 C 13.515625 -8.335938 13.550781 -8.957031 13.53125 -9.5625 C 13.5 -9.84375 13.472656 -10.113281 13.453125 -10.375 C 13.429688 -10.644531 13.363281 -10.894531 13.25 -11.125 C 13.007812 -11.632812 12.941406 -12.148438 13.046875 -12.671875 C 13.160156 -13.191406 13.46875 -13.601562 13.96875 -13.90625 C 14.457031 -14.207031 14.96875 -14.273438 15.5 -14.109375 C 16.039062 -13.953125 16.457031 -13.640625 16.75 -13.171875 Z M 8.96875 -18.984375 C 8.800781 -18.847656 8.613281 -18.71875 8.40625 -18.59375 C 8.457031 -18.019531 8.515625 -17.441406 8.578125 -16.859375 C 8.648438 -16.285156 8.710938 -15.707031 8.765625 -15.125 L 8.9375 -15.125 C 8.914062 -15.769531 8.90625 -16.410156 8.90625 -17.046875 C 8.90625 -17.691406 8.925781 -18.335938 8.96875 -18.984375 Z M 13.21875 -11.1875 C 13.21875 -11.21875 13.207031 -11.234375 13.1875 -11.234375 C 13.175781 -11.234375 13.171875 -11.242188 13.171875 -11.265625 C 13.171875 -11.265625 13.175781 -11.257812 13.1875 -11.25 C 13.207031 -11.238281 13.21875 -11.21875 13.21875 -11.1875 Z M 13.25 -11.125 C 13.226562 -11.144531 13.21875 -11.164062 13.21875 -11.1875 C 13.21875 -11.164062 13.222656 -11.15625 13.234375 -11.15625 C 13.242188 -11.15625 13.25 -11.144531 13.25 -11.125 Z M 13.25 -11.125 "/></g></g></g><g fill="#ffffff" fill-opacity="1"><g transform="translate(105.915744, 47.41867)"><g><path d="M 16.75 -6.703125 C 16.5 -5.847656 16.164062 -5.015625 15.75 -4.203125 C 15.332031 -3.390625 14.785156 -2.6875 14.109375 -2.09375 C 14.046875 -2.039062 13.96875 -1.96875 13.875 -1.875 C 13.707031 -1.71875 13.484375 -1.515625 13.203125 -1.265625 C 12.929688 -1.023438 12.644531 -0.835938 12.34375 -0.703125 C 11.550781 -0.191406 10.691406 0.0351562 9.765625 -0.015625 C 8.835938 -0.078125 7.953125 -0.332031 7.109375 -0.78125 C 6.265625 -1.226562 5.550781 -1.789062 4.96875 -2.46875 C 4.394531 -3.144531 3.910156 -3.898438 3.515625 -4.734375 C 3.304688 -4.703125 3.097656 -4.738281 2.890625 -4.84375 C 2.679688 -4.945312 2.519531 -5.128906 2.40625 -5.390625 C 1.539062 -7.546875 1.054688 -9.796875 0.953125 -12.140625 C 0.847656 -14.492188 1.050781 -16.796875 1.5625 -19.046875 C 1.695312 -19.628906 1.910156 -20.210938 2.203125 -20.796875 C 2.492188 -21.390625 2.875 -21.863281 3.34375 -22.21875 C 3.820312 -22.582031 4.410156 -22.707031 5.109375 -22.59375 C 5.523438 -22.550781 5.898438 -22.394531 6.234375 -22.125 C 6.578125 -21.863281 6.828125 -21.535156 6.984375 -21.140625 C 7.171875 -20.628906 7.1875 -20.066406 7.03125 -19.453125 C 6.882812 -18.835938 6.789062 -18.265625 6.75 -17.734375 C 6.695312 -17.078125 6.671875 -16.421875 6.671875 -15.765625 C 6.671875 -15.109375 6.679688 -14.453125 6.703125 -13.796875 C 6.796875 -12.453125 6.992188 -11.128906 7.296875 -9.828125 C 7.597656 -8.535156 7.984375 -7.265625 8.453125 -6.015625 C 8.703125 -5.828125 8.957031 -5.671875 9.21875 -5.546875 C 9.488281 -5.421875 9.773438 -5.34375 10.078125 -5.3125 C 10.753906 -5.457031 11.335938 -5.738281 11.828125 -6.15625 C 12.097656 -6.550781 12.28125 -7.03125 12.375 -7.59375 C 12.46875 -8.164062 12.523438 -8.726562 12.546875 -9.28125 C 12.566406 -9.832031 12.59375 -10.304688 12.625 -10.703125 C 12.738281 -12.253906 12.796875 -13.804688 12.796875 -15.359375 C 12.796875 -16.921875 12.785156 -18.476562 12.765625 -20.03125 C 12.734375 -20.5625 12.960938 -20.960938 13.453125 -21.234375 C 13.941406 -21.515625 14.40625 -21.53125 14.84375 -21.28125 L 14.84375 -21.625 C 14.84375 -21.8125 14.910156 -21.976562 15.046875 -22.125 C 15.191406 -22.28125 15.359375 -22.34375 15.546875 -22.3125 C 16.078125 -22.269531 16.460938 -22.070312 16.703125 -21.71875 C 16.941406 -21.375 17.101562 -20.972656 17.1875 -20.515625 C 17.269531 -20.066406 17.320312 -19.625 17.34375 -19.1875 C 17.394531 -18.769531 17.441406 -18.351562 17.484375 -17.9375 C 17.535156 -17.519531 17.5625 -17.101562 17.5625 -16.6875 L 17.5625 -15.296875 C 17.625 -13.859375 17.601562 -12.414062 17.5 -10.96875 C 17.394531 -9.519531 17.144531 -8.097656 16.75 -6.703125 Z M 6.609375 -18.953125 C 6.515625 -18.898438 6.441406 -18.921875 6.390625 -19.015625 C 6.367188 -18.859375 6.332031 -18.703125 6.28125 -18.546875 C 6.238281 -18.398438 6.1875 -18.253906 6.125 -18.109375 C 5.976562 -16.929688 5.910156 -15.75 5.921875 -14.5625 C 5.929688 -13.382812 6.054688 -12.21875 6.296875 -11.0625 C 6.335938 -10.820312 6.378906 -10.59375 6.421875 -10.375 C 6.472656 -10.15625 6.523438 -9.941406 6.578125 -9.734375 C 6.617188 -9.734375 6.648438 -9.722656 6.671875 -9.703125 C 6.117188 -12.804688 6.097656 -15.890625 6.609375 -18.953125 Z M 6.609375 -18.953125 "/></g></g></g><g fill="#ffffff" fill-opacity="1"><g transform="translate(123.647995, 47.41867)"><g><path d="M 19.84375 -20.484375 C 19.800781 -20.335938 19.757812 -20.21875 19.71875 -20.125 C 19.6875 -19.820312 19.625 -19.519531 19.53125 -19.21875 C 19.445312 -18.925781 19.265625 -18.6875 18.984375 -18.5 C 18.867188 -18.40625 18.691406 -18.332031 18.453125 -18.28125 C 18.367188 -18.1875 18.289062 -18.140625 18.21875 -18.140625 C 17.332031 -17.984375 16.445312 -17.820312 15.5625 -17.65625 C 14.6875 -17.5 13.8125 -17.363281 12.9375 -17.25 C 12.9375 -16.476562 12.925781 -15.707031 12.90625 -14.9375 C 12.894531 -14.175781 12.890625 -13.414062 12.890625 -12.65625 C 12.890625 -11.59375 12.894531 -10.53125 12.90625 -9.46875 C 12.925781 -8.414062 12.9375 -7.359375 12.9375 -6.296875 C 12.957031 -5.691406 12.976562 -5.082031 13 -4.46875 C 13.019531 -3.851562 13.046875 -3.242188 13.078125 -2.640625 C 13.046875 -2.222656 12.976562 -1.820312 12.875 -1.4375 C 12.769531 -1.0625 12.554688 -0.742188 12.234375 -0.484375 L 12.234375 -0.5625 C 12.253906 -0.8125 12.265625 -1.054688 12.265625 -1.296875 C 12.265625 -1.546875 12.28125 -1.785156 12.3125 -2.015625 L 12.3125 -3.34375 C 12.238281 -3.039062 12.175781 -2.664062 12.125 -2.21875 C 12.082031 -1.78125 12.003906 -1.390625 11.890625 -1.046875 C 11.773438 -0.671875 11.53125 -0.390625 11.15625 -0.203125 C 10.789062 -0.0234375 10.421875 0.0195312 10.046875 -0.0625 C 9.328125 -0.300781 8.851562 -0.757812 8.625 -1.4375 C 8.394531 -2.125 8.253906 -2.804688 8.203125 -3.484375 C 8.160156 -4.359375 8.144531 -5.25 8.15625 -6.15625 C 8.164062 -7.0625 8.179688 -7.953125 8.203125 -8.828125 C 8.253906 -9.710938 8.304688 -10.601562 8.359375 -11.5 C 8.421875 -12.40625 8.460938 -13.3125 8.484375 -14.21875 L 8.546875 -15.75 L 8.546875 -16.859375 C 8.316406 -16.859375 8.09375 -16.859375 7.875 -16.859375 C 7.65625 -16.859375 7.429688 -16.859375 7.203125 -16.859375 C 6.242188 -16.859375 5.316406 -16.894531 4.421875 -16.96875 C 4.046875 -17.007812 3.675781 -17.070312 3.3125 -17.15625 C 2.957031 -17.238281 2.617188 -17.375 2.296875 -17.5625 C 2.066406 -17.71875 1.851562 -17.910156 1.65625 -18.140625 C 1.457031 -18.378906 1.300781 -18.632812 1.1875 -18.90625 C 0.832031 -19.09375 0.566406 -19.378906 0.390625 -19.765625 C 0.222656 -20.148438 0.1875 -20.550781 0.28125 -20.96875 C 0.394531 -21.3125 0.609375 -21.617188 0.921875 -21.890625 C 1.234375 -22.171875 1.578125 -22.289062 1.953125 -22.25 C 2.898438 -22.15625 3.847656 -22.078125 4.796875 -22.015625 C 5.742188 -21.960938 6.695312 -21.9375 7.65625 -21.9375 C 7.65625 -21.957031 7.660156 -21.972656 7.671875 -21.984375 C 7.679688 -21.992188 7.6875 -22.015625 7.6875 -22.046875 C 5.8125 -22.160156 3.929688 -22.367188 2.046875 -22.671875 C 2.003906 -22.671875 1.988281 -22.703125 2 -22.765625 C 2.007812 -22.835938 2.039062 -22.863281 2.09375 -22.84375 C 4.519531 -22.695312 6.945312 -22.644531 9.375 -22.6875 C 11.8125 -22.738281 14.238281 -22.867188 16.65625 -23.078125 C 16.84375 -23.128906 17.023438 -23.160156 17.203125 -23.171875 C 17.390625 -23.179688 17.566406 -23.195312 17.734375 -23.21875 C 17.828125 -23.21875 17.925781 -23.222656 18.03125 -23.234375 C 18.132812 -23.253906 18.234375 -23.25 18.328125 -23.21875 C 18.578125 -23.269531 18.832031 -23.304688 19.09375 -23.328125 C 19.363281 -23.347656 19.628906 -23.367188 19.890625 -23.390625 C 20.046875 -23.421875 20.140625 -23.335938 20.171875 -23.140625 C 20.210938 -22.941406 20.140625 -22.816406 19.953125 -22.765625 C 19.835938 -22.765625 19.757812 -22.753906 19.71875 -22.734375 C 19.800781 -22.691406 19.867188 -22.644531 19.921875 -22.59375 C 20.316406 -22.363281 20.507812 -22 20.5 -21.5 C 20.488281 -21 20.269531 -20.660156 19.84375 -20.484375 Z M 4.421875 -17.796875 C 5.015625 -17.753906 5.628906 -17.753906 6.265625 -17.796875 C 5.566406 -17.867188 4.867188 -17.96875 4.171875 -18.09375 C 3.472656 -18.21875 2.789062 -18.382812 2.125 -18.59375 C 2.394531 -18.34375 2.738281 -18.148438 3.15625 -18.015625 C 3.582031 -17.890625 4.003906 -17.816406 4.421875 -17.796875 Z M 4.421875 -17.796875 "/></g></g></g><g fill="#ffffff" fill-opacity="1"><g transform="translate(143.81408, 47.41867)"><g><path d="M 16.65625 -12.625 C 16.675781 -12.320312 16.710938 -12.035156 16.765625 -11.765625 C 16.828125 -11.503906 16.882812 -11.222656 16.9375 -10.921875 C 17 -10.679688 16.972656 -10.453125 16.859375 -10.234375 C 16.742188 -10.015625 16.5625 -9.867188 16.3125 -9.796875 C 15.75 -9.660156 15.289062 -9.773438 14.9375 -10.140625 C 14.59375 -10.515625 14.332031 -11.003906 14.15625 -11.609375 C 13.988281 -12.210938 13.867188 -12.78125 13.796875 -13.3125 C 13.773438 -13.3125 13.765625 -13.316406 13.765625 -13.328125 C 13.765625 -13.335938 13.753906 -13.34375 13.734375 -13.34375 C 13.222656 -14.09375 12.601562 -14.742188 11.875 -15.296875 C 11.144531 -15.847656 10.363281 -16.3125 9.53125 -16.6875 C 8.644531 -17.082031 7.738281 -17.382812 6.8125 -17.59375 L 8.234375 -16.234375 C 8.796875 -15.703125 9.351562 -15.15625 9.90625 -14.59375 C 10.46875 -14.039062 11 -13.472656 11.5 -12.890625 C 12.007812 -12.359375 12.519531 -11.820312 13.03125 -11.28125 C 13.539062 -10.738281 14.019531 -10.175781 14.46875 -9.59375 C 14.789062 -9.195312 15.066406 -8.78125 15.296875 -8.34375 C 15.523438 -7.90625 15.6875 -7.453125 15.78125 -6.984375 C 15.96875 -6.546875 16.109375 -6.097656 16.203125 -5.640625 C 16.296875 -5.191406 16.304688 -4.738281 16.234375 -4.28125 C 16.210938 -3.53125 15.96875 -2.859375 15.5 -2.265625 C 15.039062 -1.679688 14.460938 -1.210938 13.765625 -0.859375 C 13.066406 -0.515625 12.347656 -0.320312 11.609375 -0.28125 L 11.5 -0.28125 C 10.925781 -0.1875 10.316406 -0.164062 9.671875 -0.21875 C 9.035156 -0.28125 8.441406 -0.394531 7.890625 -0.5625 C 7.128906 -0.71875 6.410156 -1.015625 5.734375 -1.453125 C 5.660156 -1.160156 5.5625 -0.878906 5.4375 -0.609375 C 5.3125 -0.335938 5.132812 -0.113281 4.90625 0.0625 C 4.738281 0.226562 4.53125 0.3125 4.28125 0.3125 C 4.039062 0.3125 3.832031 0.226562 3.65625 0.0625 C 3.46875 -0.113281 3.289062 -0.347656 3.125 -0.640625 C 2.96875 -0.929688 2.863281 -1.226562 2.8125 -1.53125 C 2.71875 -1.644531 2.640625 -1.78125 2.578125 -1.9375 C 2.523438 -2.101562 2.476562 -2.269531 2.4375 -2.4375 C 2.34375 -3.40625 2.195312 -4.375 2 -5.34375 C 1.800781 -6.320312 1.578125 -7.285156 1.328125 -8.234375 C 1.179688 -8.773438 1.066406 -9.320312 0.984375 -9.875 C 0.910156 -10.425781 0.835938 -10.984375 0.765625 -11.546875 C 0.691406 -12.023438 0.625 -12.523438 0.5625 -13.046875 C 0.507812 -13.578125 0.53125 -14.097656 0.625 -14.609375 C 0.695312 -14.929688 0.851562 -15.226562 1.09375 -15.5 C 1.332031 -15.78125 1.628906 -15.945312 1.984375 -16 C 2.398438 -16.039062 2.769531 -15.976562 3.09375 -15.8125 C 3.414062 -15.65625 3.648438 -15.367188 3.796875 -14.953125 C 4.160156 -13.816406 4.421875 -12.644531 4.578125 -11.4375 C 4.742188 -10.226562 5.023438 -9.046875 5.421875 -7.890625 C 5.585938 -7.472656 5.78125 -7.054688 6 -6.640625 C 6.21875 -6.222656 6.476562 -5.851562 6.78125 -5.53125 C 6.96875 -5.363281 7.148438 -5.1875 7.328125 -5 C 7.515625 -4.820312 7.710938 -4.648438 7.921875 -4.484375 C 8.128906 -4.410156 8.335938 -4.359375 8.546875 -4.328125 C 8.753906 -4.296875 8.960938 -4.265625 9.171875 -4.234375 C 9.890625 -4.171875 10.632812 -4.171875 11.40625 -4.234375 C 11.632812 -4.265625 11.894531 -4.304688 12.1875 -4.359375 C 12.476562 -4.421875 12.691406 -4.554688 12.828125 -4.765625 C 12.898438 -4.835938 12.9375 -4.941406 12.9375 -5.078125 C 13.03125 -5.265625 13.023438 -5.492188 12.921875 -5.765625 C 12.816406 -6.046875 12.726562 -6.253906 12.65625 -6.390625 C 12.632812 -6.484375 12.597656 -6.578125 12.546875 -6.671875 C 12.503906 -6.765625 12.457031 -6.859375 12.40625 -6.953125 C 12.25 -7.160156 12.085938 -7.367188 11.921875 -7.578125 C 11.765625 -7.785156 11.59375 -7.992188 11.40625 -8.203125 C 10.875 -8.847656 10.328125 -9.484375 9.765625 -10.109375 C 9.210938 -10.742188 8.632812 -11.359375 8.03125 -11.953125 C 7.800781 -12.210938 7.566406 -12.46875 7.328125 -12.71875 C 7.097656 -12.976562 6.859375 -13.222656 6.609375 -13.453125 L 6.078125 -13.875 C 5.273438 -14.539062 4.5 -15.238281 3.75 -15.96875 C 3.007812 -16.695312 2.316406 -17.484375 1.671875 -18.328125 C 1.367188 -18.765625 1.09375 -19.234375 0.84375 -19.734375 C 0.601562 -20.234375 0.554688 -20.769531 0.703125 -21.34375 C 0.835938 -21.925781 1.132812 -22.378906 1.59375 -22.703125 C 2.0625 -23.023438 2.582031 -23.164062 3.15625 -23.125 C 3.550781 -23.09375 3.9375 -23.023438 4.3125 -22.921875 C 4.6875 -22.816406 5.054688 -22.707031 5.421875 -22.59375 C 5.585938 -22.644531 5.757812 -22.632812 5.9375 -22.5625 C 6.894531 -22.28125 7.800781 -21.941406 8.65625 -21.546875 C 9.507812 -21.160156 10.34375 -20.703125 11.15625 -20.171875 C 11.550781 -19.929688 11.929688 -19.675781 12.296875 -19.40625 C 12.671875 -19.144531 13.035156 -18.851562 13.390625 -18.53125 L 13.5625 -18.359375 C 13.5625 -18.660156 13.5625 -18.953125 13.5625 -19.234375 C 13.5625 -19.523438 13.550781 -19.820312 13.53125 -20.125 C 13.53125 -20.59375 13.703125 -20.992188 14.046875 -21.328125 C 14.390625 -21.660156 14.785156 -21.828125 15.234375 -21.828125 C 15.742188 -21.828125 16.140625 -21.660156 16.421875 -21.328125 C 16.710938 -20.992188 16.882812 -20.59375 16.9375 -20.125 C 17.050781 -19.3125 17.046875 -18.484375 16.921875 -17.640625 C 16.804688 -16.796875 16.71875 -15.96875 16.65625 -15.15625 C 16.632812 -14.300781 16.632812 -13.457031 16.65625 -12.625 Z M 16.65625 -12.625 "/></g></g></g><g clip-path="url(#9b8d9c9bf6)"><path fill="#ffffff" d="M 106.722656 0.128906 C 106.6875 0.167969 106.613281 0.15625 106.601562 0.105469 C 106.59375 0.00390625 106.75 0.0351562 106.722656 0.128906 Z M 85.945312 21.769531 C 85.9375 21.734375 85.910156 21.714844 85.898438 21.683594 C 85.835938 21.6875 85.847656 21.761719 85.761719 21.742188 C 85.738281 21.6875 85.714844 21.636719 85.699219 21.570312 C 85.71875 21.542969 85.742188 21.515625 85.773438 21.5 C 85.78125 21.449219 85.742188 21.449219 85.75 21.398438 C 85.617188 21.425781 85.644531 21.59375 85.492188 21.621094 C 85.5 21.519531 85.539062 21.4375 85.636719 21.425781 C 85.617188 21.378906 85.578125 21.324219 85.636719 21.289062 C 85.632812 21.261719 85.570312 21.289062 85.578125 21.253906 C 85.566406 21.167969 85.632812 21.160156 85.664062 21.117188 C 85.65625 21.070312 85.648438 21.023438 85.636719 20.980469 C 85.597656 20.972656 85.53125 21.085938 85.453125 21.042969 C 85.4375 20.945312 85.488281 20.8125 85.601562 20.808594 C 85.578125 20.628906 85.542969 20.464844 85.527344 20.277344 C 85.503906 20.257812 85.410156 20.324219 85.378906 20.265625 C 85.378906 20.167969 85.453125 20.144531 85.503906 20.09375 C 85.492188 20.015625 85.480469 19.945312 85.476562 19.859375 C 85.398438 19.867188 85.441406 19.933594 85.453125 19.980469 C 85.410156 20.011719 85.386719 20.0625 85.328125 20.082031 C 85.304688 20.023438 85.324219 19.933594 85.328125 19.871094 C 85.285156 19.792969 85.183594 19.769531 85.195312 19.636719 C 85.253906 19.625 85.238281 19.683594 85.269531 19.699219 C 85.292969 19.613281 85.304688 19.476562 85.269531 19.425781 C 85.183594 19.472656 85.167969 19.589844 85.046875 19.601562 C 85.003906 19.515625 84.980469 19.410156 84.910156 19.355469 C 84.910156 19.3125 84.957031 19.324219 84.972656 19.304688 C 84.976562 19.25 84.960938 19.167969 84.984375 19.132812 C 85.054688 19.101562 85.105469 19.160156 85.144531 19.195312 C 85.15625 19.273438 85.070312 19.25 85.046875 19.292969 C 85.03125 19.371094 85.066406 19.398438 85.082031 19.441406 C 85.230469 19.414062 85.113281 19.125 85.242188 19.109375 C 85.3125 19.097656 85.324219 19.152344 85.355469 19.207031 C 85.390625 19.144531 85.339844 19.058594 85.328125 18.996094 C 85.257812 19.046875 85.160156 19.054688 85.070312 19.046875 C 85.066406 18.890625 85.210938 18.890625 85.207031 18.761719 C 85.097656 18.695312 84.871094 18.417969 85.082031 18.332031 C 85.121094 18.355469 85.121094 18.378906 85.109375 18.429688 C 85.128906 18.40625 85.183594 18.414062 85.207031 18.390625 C 85.171875 18.386719 85.097656 18.390625 85.121094 18.292969 C 85.03125 18.277344 85.011719 18.367188 84.949219 18.304688 C 85.054688 18.203125 84.925781 17.941406 85.046875 17.851562 C 85.003906 17.816406 84.972656 17.769531 84.898438 17.765625 C 84.917969 17.660156 84.875 17.683594 84.835938 17.640625 C 84.863281 17.605469 84.886719 17.601562 84.863281 17.542969 C 84.851562 17.519531 84.816406 17.609375 84.789062 17.566406 C 84.796875 17.496094 84.828125 17.394531 84.726562 17.382812 C 84.71875 17.332031 84.769531 17.304688 84.800781 17.332031 C 84.773438 17.289062 84.699219 17.25 84.738281 17.171875 C 84.683594 17.179688 84.660156 17.152344 84.617188 17.148438 C 84.617188 17.105469 84.5625 17.050781 84.589844 17.023438 C 84.644531 16.980469 84.605469 17.109375 84.664062 17.097656 C 84.742188 17.046875 84.8125 16.992188 84.824219 16.878906 C 84.804688 16.878906 84.785156 16.878906 84.765625 16.878906 C 84.710938 16.90625 84.808594 16.929688 84.75 16.976562 C 84.6875 16.988281 84.6875 16.976562 84.640625 16.949219 C 84.761719 16.835938 84.675781 16.710938 84.640625 16.570312 C 84.632812 16.554688 84.582031 16.578125 84.554688 16.554688 C 84.523438 16.484375 84.550781 16.386719 84.617188 16.371094 C 84.628906 16.175781 84.46875 16.15625 84.46875 15.976562 C 84.476562 15.917969 84.535156 15.910156 84.566406 15.878906 C 84.539062 15.867188 84.449219 15.894531 84.417969 15.855469 C 84.402344 15.765625 84.453125 15.742188 84.503906 15.71875 C 84.457031 15.667969 84.339844 15.683594 84.296875 15.632812 C 84.261719 15.582031 84.257812 15.445312 84.308594 15.410156 C 84.371094 15.398438 84.375 15.492188 84.429688 15.445312 C 84.300781 15.226562 84.183594 14.890625 84.132812 14.546875 C 84.042969 14.546875 83.941406 14.476562 84.011719 14.386719 C 84.078125 14.367188 84.050781 14.441406 84.109375 14.425781 C 84.21875 14.335938 84.070312 14.148438 84.0625 14.019531 C 84.035156 14.015625 83.996094 14.035156 83.976562 13.980469 C 83.949219 13.914062 84.023438 13.9375 84.023438 13.894531 C 84.023438 13.839844 83.933594 13.867188 83.925781 13.820312 C 83.894531 13.78125 83.960938 13.765625 83.976562 13.734375 C 83.960938 13.695312 83.898438 13.703125 83.886719 13.660156 C 83.886719 13.597656 83.929688 13.660156 83.9375 13.613281 C 83.914062 13.539062 83.890625 13.460938 83.851562 13.402344 C 83.792969 12.933594 83.605469 12.535156 83.507812 12.082031 C 83.488281 12.046875 83.433594 12.046875 83.421875 12.007812 C 83.378906 11.597656 83.234375 11.269531 83.101562 10.9375 C 82.875 10.378906 82.625 9.792969 82.386719 9.199219 C 82.332031 9.070312 82.292969 8.910156 82.238281 8.867188 C 82.179688 8.824219 82.074219 8.804688 82.003906 8.769531 C 81.570312 8.546875 81.191406 8.261719 81.089844 7.683594 C 81.089844 7.636719 81.03125 7.644531 81.03125 7.597656 C 81.058594 7.550781 81.097656 7.507812 81.089844 7.425781 C 81.101562 7.375 81.011719 7.425781 81.015625 7.375 C 81.097656 7.332031 81.128906 7.234375 81.164062 7.140625 C 81.152344 7.117188 81.109375 7.125 81.078125 7.109375 C 81.054688 7.195312 80.902344 7.144531 80.921875 7.054688 C 80.933594 7.046875 80.941406 7.03125 80.945312 7.015625 C 80.992188 7.023438 81.03125 7.039062 81.054688 7.066406 C 81.078125 6.96875 81.25 7.011719 81.277344 6.921875 C 81.273438 6.878906 81.242188 6.867188 81.253906 6.808594 C 81.207031 6.820312 81.222656 6.886719 81.164062 6.882812 C 81.078125 6.867188 81.054688 6.789062 80.96875 6.773438 C 81.007812 6.609375 81.179688 6.871094 81.226562 6.710938 C 81.28125 6.71875 81.296875 6.765625 81.351562 6.773438 C 81.414062 6.777344 81.414062 6.714844 81.460938 6.699219 C 81.394531 6.671875 81.359375 6.5625 81.425781 6.5 C 81.574219 6.515625 81.605469 6.394531 81.71875 6.339844 C 81.726562 6.289062 81.679688 6.292969 81.695312 6.230469 C 81.746094 6.21875 81.742188 6.257812 81.78125 6.253906 C 81.8125 6.3125 81.730469 6.398438 81.808594 6.4375 C 81.835938 6.414062 81.859375 6.355469 81.882812 6.300781 C 81.875 6.300781 81.867188 6.304688 81.859375 6.300781 C 81.851562 6.292969 81.847656 6.28125 81.832031 6.277344 C 81.820312 6.214844 81.890625 6.1875 81.933594 6.210938 C 81.957031 6.183594 81.984375 6.164062 82.015625 6.167969 C 82.066406 6.175781 82.082031 6.1875 82.089844 6.253906 C 82.125 6.234375 82.125 6.183594 82.1875 6.195312 C 82.273438 6.1875 82.246094 6.292969 82.3125 6.304688 C 82.320312 6.296875 82.304688 6.230469 82.316406 6.199219 C 82.285156 6.210938 82.242188 6.199219 82.226562 6.167969 C 82.222656 6.09375 82.308594 6.078125 82.351562 6.117188 C 82.359375 6.144531 82.355469 6.167969 82.34375 6.179688 C 82.480469 6.179688 82.519531 6.269531 82.621094 6.304688 C 82.671875 6.3125 82.621094 6.222656 82.660156 6.21875 C 82.65625 6.21875 82.652344 6.21875 82.644531 6.214844 C 82.640625 6.164062 82.652344 6.132812 82.695312 6.128906 C 82.726562 6.148438 82.71875 6.214844 82.667969 6.21875 C 82.75 6.214844 82.726562 6.316406 82.792969 6.328125 C 82.78125 6.253906 82.71875 6.191406 82.730469 6.132812 C 82.820312 6.089844 82.871094 6.183594 82.9375 6.207031 C 82.910156 6.242188 82.898438 6.296875 82.878906 6.339844 C 82.972656 6.375 83.089844 6.394531 83.160156 6.453125 C 83.199219 6.449219 83.183594 6.390625 83.234375 6.402344 C 83.210938 6.480469 83.246094 6.496094 83.296875 6.527344 C 83.324219 6.515625 83.296875 6.449219 83.347656 6.464844 C 83.34375 6.515625 83.40625 6.542969 83.371094 6.589844 C 83.527344 6.722656 83.703125 6.839844 83.816406 7.03125 C 83.859375 7.105469 83.875 7.214844 83.925781 7.265625 C 83.96875 7.304688 84.09375 7.332031 84.195312 7.375 C 84.804688 7.636719 85.425781 7.925781 85.984375 8.238281 C 86.625 8.597656 87.238281 9.035156 87.832031 9.410156 C 88.136719 9.601562 88.449219 9.796875 88.730469 10.027344 C 89.011719 10.253906 89.28125 10.496094 89.582031 10.679688 C 90.035156 10.957031 90.421875 11.34375 90.824219 11.703125 C 91.050781 11.902344 91.28125 12.046875 91.417969 12.332031 C 91.523438 12.214844 91.289062 12.125 91.378906 12.023438 C 91.445312 12.023438 91.425781 12.085938 91.417969 12.132812 C 91.488281 12.082031 91.449219 11.917969 91.480469 11.824219 C 91.378906 11.714844 91.484375 11.628906 91.503906 11.503906 C 91.476562 11.441406 91.378906 11.519531 91.367188 11.429688 C 91.441406 11.429688 91.449219 11.378906 91.515625 11.320312 C 91.480469 11.296875 91.40625 11.308594 91.367188 11.28125 C 91.359375 11.230469 91.378906 11.199219 91.378906 11.160156 C 91.421875 11.199219 91.4375 11.167969 91.492188 11.160156 C 91.472656 11.105469 91.421875 11.078125 91.40625 11.023438 C 91.421875 10.980469 91.449219 10.945312 91.480469 10.914062 C 91.476562 10.855469 91.429688 10.847656 91.441406 10.777344 C 91.464844 10.722656 91.542969 10.757812 91.578125 10.742188 C 91.589844 10.667969 91.515625 10.703125 91.515625 10.628906 C 91.515625 10.554688 91.648438 10.515625 91.589844 10.410156 C 91.574219 10.503906 91.46875 10.566406 91.453125 10.667969 C 91.40625 10.660156 91.410156 10.589844 91.441406 10.566406 C 91.417969 10.519531 91.359375 10.511719 91.367188 10.433594 C 91.398438 10.414062 91.417969 10.402344 91.453125 10.417969 C 91.46875 10.351562 91.453125 10.355469 91.441406 10.296875 C 91.421875 10.355469 91.3125 10.378906 91.257812 10.332031 C 91.246094 10.222656 91.390625 10.21875 91.441406 10.273438 C 91.484375 10.171875 91.394531 10.140625 91.355469 10.085938 C 91.359375 9.992188 91.46875 10.003906 91.453125 9.890625 C 91.433594 9.859375 91.351562 9.917969 91.320312 9.878906 C 91.324219 9.808594 91.4375 9.828125 91.464844 9.816406 C 91.476562 9.695312 91.507812 9.59375 91.554688 9.507812 C 91.488281 9.390625 91.464844 9.128906 91.566406 9.015625 C 91.59375 8.984375 91.644531 8.988281 91.664062 8.941406 C 91.625 8.921875 91.5625 8.925781 91.539062 8.890625 C 91.527344 8.78125 91.554688 8.582031 91.628906 8.484375 C 91.730469 8.472656 91.707031 8.59375 91.714844 8.644531 C 91.742188 8.621094 91.71875 8.542969 91.726562 8.496094 C 91.617188 8.453125 91.550781 8.203125 91.640625 8.117188 C 91.675781 8.117188 91.652344 8.179688 91.6875 8.179688 C 91.746094 8.109375 91.632812 8.105469 91.617188 8.042969 C 91.585938 8.085938 91.617188 8.191406 91.539062 8.191406 C 91.515625 8.125 91.503906 8.042969 91.464844 7.992188 C 91.542969 8.019531 91.53125 7.972656 91.589844 7.957031 C 91.589844 7.839844 91.578125 7.707031 91.617188 7.625 C 91.601562 7.582031 91.535156 7.585938 91.539062 7.523438 C 91.589844 7.46875 91.667969 7.4375 91.761719 7.425781 C 91.734375 7.300781 91.703125 7.242188 91.628906 7.15625 C 91.648438 7.089844 91.644531 6.996094 91.601562 6.957031 C 91.644531 6.917969 91.652344 6.84375 91.664062 6.773438 C 91.683594 6.753906 91.753906 6.753906 91.773438 6.773438 C 91.792969 6.679688 91.722656 6.679688 91.738281 6.589844 C 91.695312 6.570312 91.625 6.578125 91.613281 6.527344 C 91.632812 6.402344 91.699219 6.324219 91.738281 6.21875 C 91.714844 6.183594 91.648438 6.191406 91.640625 6.144531 C 91.691406 6.0625 91.683594 5.996094 91.675781 5.863281 C 91.71875 5.800781 91.757812 5.738281 91.789062 5.664062 C 91.761719 5.640625 91.710938 5.640625 91.703125 5.601562 C 91.714844 5.496094 91.808594 5.371094 91.75 5.308594 C 91.742188 5.242188 91.816406 5.257812 91.800781 5.183594 C 91.796875 5.132812 91.71875 5.15625 91.726562 5.097656 C 91.789062 5.019531 91.875 4.878906 91.761719 4.800781 C 91.789062 4.699219 91.832031 4.679688 91.789062 4.617188 C 91.789062 4.546875 91.863281 4.542969 91.875 4.480469 C 91.84375 4.460938 91.796875 4.460938 91.789062 4.417969 C 91.792969 4.363281 91.835938 4.34375 91.886719 4.332031 C 91.828125 4.226562 91.941406 4.113281 91.886719 3.976562 C 91.875 3.9375 91.902344 3.9375 91.921875 3.925781 C 91.917969 3.875 91.851562 3.890625 91.875 3.816406 C 91.898438 3.789062 91.898438 3.746094 91.949219 3.777344 C 91.953125 3.722656 91.964844 3.695312 91.949219 3.644531 C 92.070312 3.035156 92.300781 2.46875 92.96875 2.386719 C 93.304688 2.34375 93.523438 2.523438 93.757812 2.683594 C 93.960938 2.816406 94.121094 2.910156 94.277344 3.050781 C 94.433594 3.195312 94.566406 3.359375 94.71875 3.496094 C 95.175781 3.90625 95.585938 4.390625 95.953125 4.898438 C 96.203125 5.246094 96.46875 5.578125 96.703125 5.910156 C 96.953125 6.269531 97.148438 6.644531 97.417969 6.96875 C 98.203125 7.925781 98.984375 8.945312 99.722656 9.953125 C 100.054688 9.25 100.386719 8.5625 100.734375 7.894531 C 100.898438 7.570312 101.121094 7.265625 101.3125 6.945312 C 101.503906 6.625 101.703125 6.304688 101.914062 6.019531 C 102.132812 5.730469 102.375 5.449219 102.59375 5.160156 C 102.816406 4.863281 103.03125 4.578125 103.273438 4.308594 C 103.75 3.765625 104.144531 3.152344 104.699219 2.683594 C 104.695312 2.636719 104.679688 2.609375 104.699219 2.570312 C 104.894531 2.558594 104.902344 2.351562 105.058594 2.300781 C 105.050781 2.183594 105.195312 2.171875 105.179688 2.042969 C 105.242188 2.027344 105.265625 1.976562 105.304688 1.941406 C 105.367188 1.933594 105.417969 1.976562 105.453125 1.929688 C 105.421875 1.898438 105.390625 1.820312 105.441406 1.78125 C 105.511719 1.761719 105.503906 1.824219 105.5625 1.820312 C 105.671875 1.773438 105.648438 1.738281 105.613281 1.632812 C 105.65625 1.578125 105.730469 1.605469 105.796875 1.621094 C 105.84375 1.546875 105.769531 1.496094 105.734375 1.460938 C 105.785156 1.429688 105.820312 1.382812 105.875 1.355469 C 105.878906 1.351562 105.878906 1.347656 105.882812 1.347656 C 105.847656 1.226562 105.929688 1.152344 105.921875 1.054688 C 105.980469 1.0625 105.988281 1.019531 106.070312 1.019531 C 106.0625 0.996094 106.050781 0.976562 106.046875 0.957031 C 106.046875 0.960938 106.046875 0.964844 106.046875 0.96875 C 105.914062 0.972656 106.011719 0.824219 106.0625 0.902344 C 106.101562 0.878906 106.136719 0.886719 106.183594 0.890625 C 106.183594 0.890625 106.183594 0.886719 106.183594 0.882812 C 106.191406 0.871094 106.207031 0.867188 106.222656 0.867188 C 106.226562 0.851562 106.226562 0.832031 106.242188 0.820312 C 106.28125 0.824219 106.292969 0.800781 106.339844 0.808594 C 106.390625 0.699219 106.519531 0.667969 106.585938 0.574219 C 106.730469 0.617188 106.84375 0.574219 107.003906 0.574219 C 107.054688 0.582031 107.035156 0.523438 107.066406 0.511719 C 107.132812 0.503906 107.125 0.570312 107.164062 0.585938 C 107.183594 0.589844 107.203125 0.597656 107.222656 0.601562 C 107.246094 0.570312 107.300781 0.566406 107.339844 0.585938 C 107.34375 0.605469 107.351562 0.621094 107.351562 0.640625 C 107.738281 0.785156 108 1.113281 107.992188 1.574219 C 107.976562 2.140625 107.59375 2.433594 107.1875 2.621094 C 107.171875 2.832031 107.1875 3.078125 107.066406 3.1875 C 107.054688 4.210938 107.0625 5.285156 106.980469 6.28125 C 106.878906 7.480469 106.914062 8.738281 106.855469 9.976562 C 106.796875 11.292969 106.898438 12.519531 106.957031 13.734375 C 107 14.65625 107.050781 15.570312 107.179688 16.421875 C 107.210938 16.65625 107.234375 16.839844 107.324219 17.011719 C 107.417969 17.191406 107.457031 17.375 107.511719 17.578125 C 107.566406 17.78125 107.664062 17.964844 107.683594 18.144531 C 107.761719 18.894531 107.230469 19.398438 106.523438 19.339844 C 106.019531 19.300781 105.742188 18.972656 105.550781 18.566406 C 104.261719 18.132812 102.480469 18.121094 100.84375 18.074219 C 100.78125 18.167969 100.8125 18.277344 100.804688 18.382812 C 100.757812 19.496094 100.851562 20.734375 100.855469 21.878906 C 101.425781 21.84375 102.019531 21.65625 102.644531 21.570312 C 103.140625 21.503906 103.511719 21.402344 103.9375 21.277344 C 104.0625 21.238281 104.175781 21.125 104.28125 21.105469 C 104.683594 21.03125 104.777344 21.578125 104.441406 21.683594 C 104.367188 21.707031 104.285156 21.703125 104.207031 21.71875 C 104.023438 21.761719 103.808594 21.867188 103.605469 21.894531 C 103.609375 22.21875 103.660156 22.683594 103.554688 22.941406 C 103.519531 22.957031 103.480469 22.972656 103.417969 22.964844 C 103.28125 22.78125 103.304688 22.4375 103.285156 22.140625 C 103.199219 22.117188 103.019531 22.203125 102.925781 22.140625 C 102.929688 22.316406 103.007812 22.710938 102.976562 22.925781 C 102.960938 23.023438 102.910156 23.1875 102.753906 23.148438 C 102.570312 22.984375 102.648438 22.558594 102.605469 22.25 C 102.042969 22.410156 101.441406 22.53125 100.855469 22.667969 C 100.90625 23.035156 100.8125 23.363281 100.84375 23.765625 C 100.859375 23.960938 100.941406 24.253906 100.96875 24.46875 C 100.992188 24.691406 100.890625 25.078125 100.632812 24.886719 C 100.554688 24.828125 100.515625 24.625 100.523438 24.492188 C 100.535156 24.257812 100.585938 23.957031 100.574219 23.644531 C 100.558594 23.300781 100.503906 22.996094 100.523438 22.742188 C 100.117188 22.789062 99.703125 22.933594 99.253906 22.976562 C 99.171875 23.675781 99.332031 24.410156 99.316406 25.082031 C 99.464844 25.226562 99.390625 25.480469 99.253906 25.515625 C 99.058594 25.566406 98.945312 25.417969 98.957031 25.257812 C 98.964844 25.199219 99.015625 25.15625 99.019531 25.109375 C 99.027344 25.074219 99.011719 25.046875 99.007812 25.011719 C 98.960938 24.414062 99.023438 23.585938 98.921875 23.0625 C 98.308594 23.191406 97.570312 23.296875 96.851562 23.359375 C 96.820312 23.417969 96.820312 23.507812 96.765625 23.542969 C 96.746094 23.832031 96.75 24.191406 96.765625 24.554688 C 96.785156 24.957031 96.757812 25.40625 96.851562 25.664062 C 96.886719 25.757812 96.996094 25.832031 96.960938 25.984375 C 96.914062 26.203125 96.566406 26.164062 96.53125 25.945312 C 96.519531 25.867188 96.535156 25.714844 96.53125 25.601562 C 96.5 24.921875 96.550781 24.054688 96.46875 23.421875 C 95.035156 23.488281 93.492188 23.652344 91.898438 23.582031 C 91.378906 23.558594 90.867188 23.605469 90.371094 23.582031 C 89.914062 23.558594 89.480469 23.546875 89.027344 23.519531 C 88.691406 23.496094 88.34375 23.425781 88.015625 23.371094 C 87.6875 23.316406 87.386719 23.234375 87.117188 23.125 C 86.578125 22.902344 86.117188 22.507812 85.996094 21.941406 C 85.953125 21.945312 85.902344 22.046875 85.785156 22.015625 C 85.628906 21.925781 85.773438 21.660156 85.945312 21.769531 Z M 85.601562 21.644531 C 85.664062 21.636719 85.675781 21.757812 85.589844 21.730469 C 85.589844 21.699219 85.585938 21.660156 85.601562 21.644531 Z M 105.230469 2.089844 C 105.269531 2.089844 105.292969 2.078125 105.304688 2.054688 C 105.265625 2.0625 105.28125 2.019531 105.242188 2.027344 C 105.246094 2.058594 105.21875 2.054688 105.230469 2.089844 Z M 99.070312 11.367188 C 98.902344 11.464844 98.933594 11.152344 98.796875 11.136719 C 98.792969 11.175781 98.792969 11.226562 98.75 11.234375 C 98.71875 11.199219 98.6875 11.164062 98.699219 11.085938 C 98.71875 11.019531 98.800781 11.078125 98.824219 11.035156 C 98.757812 10.929688 98.691406 10.820312 98.589844 10.753906 C 98.582031 10.773438 98.605469 10.824219 98.578125 10.828125 C 98.382812 10.785156 98.511719 10.539062 98.378906 10.46875 C 98.378906 10.511719 98.40625 10.53125 98.355469 10.53125 C 98.273438 10.5 98.308594 10.355469 98.21875 10.394531 C 98.175781 10.332031 98.160156 10.289062 98.207031 10.222656 C 98.175781 10.167969 98.089844 10.269531 98.046875 10.199219 C 98.046875 10.109375 98.074219 10.042969 98.023438 9.976562 C 97.992188 9.941406 97.988281 10.046875 97.949219 10 C 97.929688 9.800781 97.796875 9.71875 97.652344 9.644531 C 97.621094 9.609375 97.65625 9.566406 97.652344 9.519531 C 97.527344 9.433594 97.472656 9.28125 97.371094 9.175781 C 97.332031 9.140625 97.289062 9.128906 97.257812 9.089844 C 97.230469 9.054688 97.21875 9.003906 97.195312 8.964844 C 96.933594 8.554688 96.5625 8.207031 96.25 7.832031 C 95.925781 7.445312 95.636719 7.042969 95.285156 6.699219 C 95.304688 7.121094 95.261719 7.566406 95.261719 7.992188 C 95.261719 8.175781 95.359375 8.695312 95.214844 8.734375 C 95.113281 8.757812 95.050781 8.648438 95.039062 8.597656 C 95.027344 8.515625 95.105469 8.441406 95.113281 8.351562 C 95.132812 8.183594 95.101562 7.921875 95.089844 7.671875 C 95.078125 7.394531 95.054688 7.089844 95.039062 6.859375 C 95.03125 6.695312 95.070312 6.503906 95.039062 6.390625 C 95.019531 6.3125 94.902344 6.207031 94.84375 6.132812 C 94.769531 6.035156 94.683594 5.9375 94.632812 5.875 C 94.472656 5.671875 94.351562 5.496094 94.203125 5.394531 C 94.207031 6.078125 94.257812 7.019531 94.324219 7.660156 C 94.332031 7.71875 94.359375 7.769531 94.351562 7.820312 C 94.3125 8.015625 94.027344 7.953125 94.003906 7.808594 C 93.996094 7.738281 94.046875 7.671875 94.054688 7.597656 C 94.078125 7.363281 94.007812 7.011719 93.992188 6.6875 C 93.976562 6.335938 93.96875 5.898438 93.945312 5.554688 C 93.929688 5.371094 93.996094 5.164062 93.882812 5.023438 C 93.667969 6.035156 93.464844 7.144531 93.339844 8.289062 C 93.191406 9.660156 92.945312 11.007812 92.882812 12.429688 C 92.871094 12.738281 92.945312 13.042969 92.921875 13.328125 C 92.882812 13.757812 92.566406 14.089844 92.15625 14.117188 C 91.796875 14.140625 91.542969 13.941406 91.417969 13.757812 C 91.351562 13.664062 91.347656 13.539062 91.269531 13.425781 C 91.191406 13.3125 91.007812 13.207031 90.863281 13.09375 C 90.71875 12.980469 90.585938 12.839844 90.46875 12.734375 C 90.195312 12.492188 89.890625 12.292969 89.605469 12.09375 C 88.40625 11.257812 87.261719 10.433594 85.933594 9.769531 C 85.265625 9.429688 84.585938 9.117188 83.875 8.820312 C 84.269531 9.621094 84.738281 10.382812 85.070312 11.246094 C 85.410156 12.121094 85.636719 13.058594 85.972656 13.980469 C 86.289062 14.859375 86.601562 15.757812 86.90625 16.667969 C 87.21875 17.59375 87.457031 18.546875 87.683594 19.527344 C 88.523438 19.027344 89.410156 18.574219 90.40625 18.234375 C 90.425781 17.980469 90.417969 17.699219 90.421875 17.433594 C 90.015625 17.5 89.515625 17.742188 89.0625 17.851562 C 88.574219 17.972656 88.144531 17.675781 88.105469 17.257812 C 88.058594 16.8125 88.339844 16.605469 88.632812 16.46875 C 88.65625 16.441406 88.652344 16.382812 88.695312 16.371094 C 88.78125 16.375 88.828125 16.296875 88.890625 16.371094 C 88.886719 16.214844 89.152344 16.253906 89.234375 16.261719 C 89.25 16.21875 89.132812 16.171875 89.1875 16.089844 C 89.253906 16.066406 89.390625 16.054688 89.484375 16.074219 C 89.546875 16.09375 89.574219 16.167969 89.617188 16.136719 C 89.636719 16.117188 89.542969 16.105469 89.570312 16.039062 C 89.578125 16 89.628906 16.007812 89.65625 15.988281 C 89.605469 15.984375 89.570312 15.949219 89.59375 15.902344 C 89.789062 15.828125 89.765625 16.023438 89.851562 16.074219 C 89.824219 16.023438 89.796875 15.988281 89.851562 15.964844 C 89.933594 15.933594 89.980469 16.082031 90.0625 16.015625 C 90.082031 15.980469 90.023438 15.914062 90.074219 15.867188 C 90.226562 15.804688 90.382812 15.808594 90.480469 15.902344 C 90.578125 15.902344 90.5625 15.78125 90.628906 15.742188 C 90.683594 15.742188 90.703125 15.808594 90.742188 15.820312 C 90.738281 15.800781 90.75 15.773438 90.753906 15.753906 C 90.78125 15.746094 90.800781 15.753906 90.8125 15.765625 C 90.839844 15.734375 90.871094 15.722656 90.898438 15.78125 C 90.898438 15.726562 90.914062 15.6875 90.960938 15.683594 C 91.03125 15.710938 91.054688 15.765625 91.160156 15.730469 C 91.167969 15.691406 91.082031 15.59375 91.171875 15.558594 C 91.273438 15.558594 91.300781 15.675781 91.378906 15.671875 C 91.453125 15.664062 91.445312 15.617188 91.527344 15.570312 C 91.59375 15.601562 91.667969 15.648438 91.714844 15.570312 C 91.683594 15.515625 91.535156 15.578125 91.554688 15.472656 C 91.582031 15.429688 91.644531 15.457031 91.675781 15.484375 C 91.675781 15.429688 91.730469 15.433594 91.789062 15.433594 C 91.835938 15.480469 91.832031 15.578125 91.949219 15.558594 C 92.011719 15.535156 92.03125 15.472656 92.09375 15.449219 C 92.027344 15.445312 91.964844 15.5 91.933594 15.433594 C 91.964844 15.332031 92.21875 15.386719 92.21875 15.449219 C 92.261719 15.367188 92.339844 15.386719 92.417969 15.402344 C 92.441406 15.378906 92.492188 15.382812 92.519531 15.410156 C 92.605469 15.398438 92.675781 15.339844 92.722656 15.421875 C 92.722656 15.359375 92.757812 15.328125 92.796875 15.304688 C 92.785156 15.292969 92.78125 15.28125 92.777344 15.261719 C 92.785156 15.171875 92.945312 15.210938 92.910156 15.308594 C 92.902344 15.316406 92.890625 15.320312 92.886719 15.332031 C 92.902344 15.34375 92.914062 15.351562 92.933594 15.363281 C 92.953125 15.257812 93.113281 15.292969 93.179688 15.238281 C 93.246094 15.234375 93.230469 15.308594 93.292969 15.3125 C 93.308594 15.28125 93.304688 15.230469 93.363281 15.238281 C 93.429688 15.230469 93.425781 15.316406 93.488281 15.277344 C 93.554688 15.289062 93.53125 15.210938 93.585938 15.214844 C 93.644531 15.207031 93.636719 15.261719 93.695312 15.25 C 93.746094 15.253906 93.734375 15.199219 93.78125 15.203125 C 93.816406 15.207031 93.851562 15.210938 93.890625 15.210938 C 93.902344 15.183594 93.941406 15.183594 93.984375 15.1875 C 93.984375 15.195312 93.992188 15.203125 93.996094 15.210938 C 94.164062 15.207031 94.339844 15.171875 94.511719 15.152344 C 94.726562 15.125 94.949219 15.121094 95.164062 15.101562 C 96.164062 15.027344 97.171875 14.972656 98.183594 15.015625 C 98.4375 15.027344 98.664062 15.019531 98.910156 15.03125 C 99.875 15.074219 100.777344 15.1875 101.558594 15.347656 C 101.960938 15.433594 102.34375 15.5 102.703125 15.632812 C 102.875 15.695312 103.042969 15.78125 103.222656 15.828125 C 103.320312 15.859375 103.40625 15.878906 103.492188 15.914062 C 103.574219 15.949219 103.652344 16.011719 103.738281 16.039062 C 103.84375 16.074219 103.878906 16.046875 103.9375 16.074219 C 104.160156 16.1875 104.050781 16.570312 103.761719 16.507812 C 103.667969 16.484375 103.613281 16.367188 103.554688 16.335938 C 103.492188 16.300781 103.394531 16.296875 103.308594 16.261719 C 103.234375 16.230469 103.164062 16.179688 103.085938 16.152344 C 102.921875 16.085938 102.714844 16.070312 102.53125 16.039062 C 102.148438 15.980469 101.734375 15.910156 101.351562 15.890625 C 100.507812 15.855469 99.691406 15.871094 98.921875 15.902344 C 96.636719 16.003906 94.5625 16.453125 92.648438 16.839844 C 92.679688 17.089844 92.695312 17.351562 92.699219 17.628906 C 94.265625 17.320312 96.082031 17.097656 97.960938 17.011719 C 100.535156 16.894531 103.234375 16.988281 105.328125 17.519531 C 105.261719 15.808594 105.25 14.011719 105.328125 12.230469 C 105.367188 11.378906 105.351562 10.523438 105.390625 9.679688 C 105.441406 8.578125 105.496094 7.492188 105.574219 6.441406 C 105.527344 6.410156 105.472656 6.386719 105.453125 6.328125 C 105.550781 6.207031 105.386719 6.21875 105.402344 6.109375 C 105.414062 6.027344 105.511719 6.015625 105.601562 6.070312 C 105.578125 5.972656 105.589844 5.875 105.613281 5.785156 C 105.523438 5.710938 105.421875 5.429688 105.625 5.394531 C 105.6875 5.4375 105.550781 5.554688 105.648438 5.601562 C 105.660156 5.507812 105.675781 5.414062 105.675781 5.308594 C 105.515625 5.261719 105.578125 4.980469 105.710938 4.949219 C 105.589844 4.902344 105.597656 4.773438 105.722656 4.738281 C 105.75 4.628906 105.734375 4.480469 105.761719 4.371094 C 105.65625 4.289062 105.601562 3.984375 105.796875 3.964844 C 105.785156 3.882812 105.820312 3.820312 105.796875 3.765625 C 105.578125 3.960938 105.421875 4.222656 105.230469 4.46875 C 105.046875 4.703125 104.847656 4.929688 104.664062 5.171875 C 104.417969 5.492188 104.128906 5.929688 103.875 6.28125 C 103.746094 6.457031 103.605469 6.597656 103.578125 6.820312 C 103.511719 7.449219 103.546875 8.105469 103.519531 8.769531 C 103.492188 9.339844 103.492188 9.871094 103.519531 10.433594 C 103.546875 11.066406 103.582031 11.628906 103.554688 12.257812 C 103.550781 12.359375 103.523438 12.554688 103.554688 12.640625 C 103.589844 12.734375 103.710938 12.746094 103.714844 12.898438 C 103.71875 13.054688 103.597656 13.152344 103.457031 13.144531 C 103.132812 13.121094 103.285156 12.75 103.285156 12.515625 C 103.28125 11.613281 103.207031 10.628906 103.273438 9.621094 C 103.273438 9.578125 103.285156 9.539062 103.285156 9.496094 C 103.28125 8.785156 103.226562 8.03125 103.1875 7.402344 C 102.921875 7.863281 102.671875 8.367188 102.394531 8.855469 C 102.304688 9.015625 102.164062 9.175781 102.125 9.335938 C 102.101562 9.425781 102.125 9.546875 102.125 9.65625 C 102.121094 10.183594 102.046875 10.894531 102.101562 11.367188 C 102.117188 11.511719 102.179688 11.789062 101.964844 11.777344 C 101.851562 11.769531 101.828125 11.597656 101.816406 11.492188 C 101.78125 11.050781 101.871094 10.472656 101.769531 10.050781 C 101.613281 10.484375 101.402344 11.082031 101.226562 11.542969 C 101.0625 11.976562 100.832031 12.378906 100.226562 12.332031 C 100.066406 12.316406 99.976562 12.246094 99.808594 12.21875 C 99.742188 12.167969 99.71875 12.070312 99.636719 12.035156 C 99.601562 12.054688 99.625 12.128906 99.550781 12.109375 C 99.480469 12.03125 99.433594 11.925781 99.453125 11.824219 C 99.414062 11.84375 99.441406 11.886719 99.367188 11.863281 C 99.296875 11.804688 99.40625 11.75 99.351562 11.714844 C 99.292969 11.707031 99.28125 11.792969 99.230469 11.75 C 99.125 11.714844 99.171875 11.566406 99.191406 11.515625 C 99.148438 11.550781 99.070312 11.515625 99.058594 11.480469 C 99.058594 11.4375 99.109375 11.441406 99.128906 11.417969 C 99.09375 11.410156 99.074219 11.320312 99.042969 11.34375 C 99.0625 11.34375 99.058594 11.367188 99.070312 11.367188 Z M 91.640625 9.273438 C 91.675781 9.300781 91.660156 9.351562 91.652344 9.398438 C 91.6875 9.363281 91.695312 9.238281 91.675781 9.1875 C 91.667969 9.21875 91.644531 9.238281 91.640625 9.273438 Z M 91.554688 9.742188 C 91.597656 9.71875 91.613281 9.746094 91.652344 9.753906 C 91.652344 9.71875 91.652344 9.679688 91.652344 9.644531 C 91.628906 9.644531 91.601562 9.644531 91.578125 9.644531 C 91.578125 9.683594 91.550781 9.699219 91.554688 9.742188 Z M 91.492188 10.246094 C 91.582031 10.21875 91.539062 10.324219 91.578125 10.347656 C 91.601562 10.265625 91.644531 10.136719 91.617188 10.039062 C 91.585938 10.121094 91.492188 10.136719 91.492188 10.246094 Z M 84.234375 14.695312 C 84.230469 14.601562 84.214844 14.519531 84.171875 14.460938 C 84.1875 14.542969 84.191406 14.640625 84.234375 14.695312 Z M 84.332031 15.042969 C 84.328125 15.003906 84.324219 14.964844 84.296875 14.953125 C 84.308594 14.980469 84.296875 15.035156 84.332031 15.042969 Z M 84.628906 16.46875 C 84.695312 16.476562 84.730469 16.515625 84.765625 16.554688 C 84.753906 16.511719 84.734375 16.480469 84.726562 16.433594 C 84.683594 16.4375 84.65625 16.429688 84.628906 16.421875 C 84.628906 16.4375 84.628906 16.453125 84.628906 16.46875 Z M 91.601562 17.125 C 91.589844 17.339844 91.609375 17.632812 91.601562 17.886719 C 91.8125 17.847656 92.007812 17.792969 92.207031 17.738281 C 92.183594 17.480469 92.210938 17.175781 92.144531 16.964844 C 91.96875 17.023438 91.75 17.039062 91.601562 17.125 Z M 84.835938 17.136719 C 84.828125 17.167969 84.863281 17.160156 84.863281 17.183594 C 84.898438 17.175781 84.925781 17.15625 84.925781 17.109375 C 84.878906 17.101562 84.875 17.136719 84.835938 17.136719 Z M 90.738281 17.332031 C 90.722656 17.585938 90.726562 17.863281 90.726562 18.132812 C 90.886719 18.082031 91.050781 18.039062 91.207031 17.988281 C 91.148438 17.769531 91.203125 17.441406 91.148438 17.222656 C 91.011719 17.257812 90.867188 17.285156 90.738281 17.332031 Z M 84.996094 17.765625 C 85.039062 17.765625 85.058594 17.75 85.058594 17.714844 C 85.042969 17.703125 85.027344 17.699219 84.996094 17.703125 C 84.996094 17.722656 84.996094 17.742188 84.996094 17.765625 Z M 93.820312 19.082031 C 92.890625 19.347656 92.027344 19.664062 91.132812 20.019531 C 90.542969 20.253906 89.871094 20.582031 89.3125 20.917969 C 89.117188 21.035156 88.875 21.152344 88.757812 21.277344 C 88.699219 21.335938 88.652344 21.453125 88.59375 21.546875 C 88.53125 21.652344 88.457031 21.757812 88.460938 21.855469 C 88.464844 21.941406 88.59375 22.183594 88.667969 22.226562 C 88.738281 22.261719 88.886719 22.257812 89.015625 22.273438 C 89.132812 22.289062 89.257812 22.304688 89.359375 22.324219 C 90.035156 22.4375 90.890625 22.511719 91.527344 22.546875 C 92.039062 22.570312 92.5625 22.535156 93.070312 22.519531 C 94.636719 22.472656 96.105469 22.371094 97.554688 22.226562 C 98.539062 22.125 99.523438 22.109375 100.472656 21.953125 C 100.464844 20.71875 100.472656 19.292969 100.351562 18.085938 C 97.964844 18.148438 95.832031 18.507812 93.820312 19.082031 Z M 85.21875 18.75 C 85.238281 18.75 85.261719 18.75 85.28125 18.75 C 85.296875 18.679688 85.214844 18.699219 85.21875 18.75 Z M 85.234375 18.871094 C 85.257812 18.871094 85.28125 18.871094 85.304688 18.871094 C 85.300781 18.839844 85.300781 18.804688 85.28125 18.785156 C 85.265625 18.820312 85.25 18.847656 85.234375 18.871094 Z M 85.40625 19.378906 C 85.40625 19.339844 85.410156 19.296875 85.367188 19.304688 C 85.347656 19.34375 85.375 19.359375 85.40625 19.378906 Z M 85.378906 19.511719 C 85.402344 19.511719 85.417969 19.515625 85.429688 19.527344 C 85.425781 19.496094 85.421875 19.398438 85.40625 19.414062 C 85.414062 19.464844 85.378906 19.472656 85.378906 19.511719 Z M 85.355469 19.75 C 85.378906 19.769531 85.40625 19.789062 85.453125 19.785156 C 85.457031 19.769531 85.46875 19.660156 85.429688 19.648438 C 85.417969 19.695312 85.34375 19.679688 85.355469 19.75 Z M 85.121094 21.914062 C 85.105469 21.941406 85.089844 21.972656 85.035156 21.964844 C 84.996094 21.894531 85.09375 21.847656 85.121094 21.914062 Z M 85.296875 21.855469 C 85.3125 21.871094 85.3125 21.910156 85.296875 21.925781 C 85.261719 21.925781 85.242188 21.90625 85.246094 21.863281 C 85.257812 21.855469 85.273438 21.851562 85.296875 21.855469 Z M 85.035156 21.496094 C 85.042969 21.59375 84.925781 21.65625 84.828125 21.691406 C 84.824219 21.609375 84.917969 21.457031 85.035156 21.496094 Z M 84.777344 21.386719 C 84.828125 21.378906 84.839844 21.453125 84.816406 21.484375 C 84.800781 21.484375 84.78125 21.484375 84.765625 21.484375 C 84.742188 21.457031 84.753906 21.402344 84.777344 21.386719 Z M 85.097656 21.335938 C 85.128906 21.335938 85.144531 21.355469 85.148438 21.386719 C 85.125 21.386719 85.132812 21.417969 85.097656 21.410156 C 85.082031 21.394531 85.082031 21.351562 85.097656 21.335938 Z M 84.691406 21.261719 C 84.710938 21.257812 84.710938 21.273438 84.730469 21.273438 C 84.730469 21.296875 84.714844 21.300781 84.71875 21.324219 C 84.6875 21.320312 84.691406 21.292969 84.691406 21.261719 Z M 85.199219 21.1875 C 85.242188 21.183594 85.261719 21.203125 85.257812 21.25 C 85.246094 21.257812 85.226562 21.265625 85.199219 21.261719 C 85.1875 21.226562 85.1875 21.222656 85.199219 21.1875 Z M 84.765625 20.992188 C 84.824219 21 84.808594 21.078125 84.828125 21.125 C 84.875 21.132812 84.957031 21.101562 84.949219 21.164062 C 84.996094 21.15625 85.027344 21.082031 85.085938 21.125 C 85.097656 21.183594 85.015625 21.21875 84.976562 21.1875 C 84.941406 21.222656 84.910156 21.261719 84.875 21.300781 C 84.894531 21.339844 84.980469 21.308594 85 21.347656 C 85.019531 21.539062 84.761719 21.476562 84.839844 21.308594 C 84.820312 21.289062 84.765625 21.300781 84.753906 21.273438 C 84.789062 21.164062 84.78125 21.117188 84.765625 20.992188 Z M 85.199219 20.917969 C 85.214844 20.925781 85.226562 20.933594 85.234375 20.953125 C 85.21875 20.996094 85.199219 21.039062 85.148438 21.050781 C 85.144531 21.003906 85.105469 20.996094 85.113281 20.941406 C 85.132812 20.921875 85.179688 20.960938 85.199219 20.917969 Z M 84.53125 20.878906 C 84.539062 20.90625 84.523438 20.914062 84.519531 20.929688 C 84.503906 20.925781 84.5 20.90625 84.480469 20.90625 C 84.484375 20.882812 84.503906 20.878906 84.53125 20.878906 Z M 84.605469 20.734375 C 84.621094 20.738281 84.625 20.753906 84.644531 20.757812 C 84.636719 20.808594 84.625 20.851562 84.605469 20.890625 C 84.566406 20.871094 84.574219 20.753906 84.605469 20.734375 Z M 85.050781 20.71875 C 85.082031 20.757812 85.089844 20.820312 85.085938 20.890625 C 85.027344 20.882812 85.046875 20.792969 84.960938 20.804688 C 84.960938 20.746094 84.988281 20.714844 85.050781 20.71875 Z M 84.816406 20.71875 C 84.804688 20.757812 84.785156 20.789062 84.742188 20.792969 C 84.75 20.753906 84.761719 20.714844 84.816406 20.71875 Z M 84.914062 20.570312 C 84.929688 20.570312 84.945312 20.570312 84.960938 20.570312 C 84.984375 20.59375 84.972656 20.652344 84.976562 20.695312 C 84.945312 20.71875 84.914062 20.742188 84.851562 20.734375 C 84.847656 20.707031 84.824219 20.699219 84.828125 20.667969 C 84.859375 20.640625 84.917969 20.640625 84.914062 20.570312 Z M 84.765625 20.496094 C 84.832031 20.5 84.835938 20.570312 84.851562 20.621094 C 84.839844 20.625 84.828125 20.632812 84.828125 20.644531 C 84.734375 20.652344 84.730469 20.558594 84.765625 20.496094 Z M 84.902344 20.351562 C 84.960938 20.378906 84.992188 20.523438 84.875 20.511719 C 84.875 20.457031 84.855469 20.390625 84.902344 20.351562 Z M 84.875 20.203125 C 84.875 20.222656 84.875 20.242188 84.875 20.265625 C 84.824219 20.292969 84.773438 20.273438 84.71875 20.3125 C 84.703125 20.203125 84.792969 20.144531 84.875 20.203125 Z M 85 20.054688 C 85.015625 20.089844 85 20.117188 84.976562 20.140625 C 84.914062 20.136719 84.933594 20.039062 85 20.054688 Z M 84.457031 20.042969 C 84.511719 20.039062 84.539062 20.066406 84.542969 20.117188 C 84.511719 20.148438 84.488281 20.191406 84.433594 20.203125 C 84.410156 20.140625 84.441406 20.097656 84.457031 20.042969 Z M 84.679688 19.488281 C 84.679688 19.515625 84.699219 19.523438 84.691406 19.5625 C 84.667969 19.59375 84.601562 19.59375 84.582031 19.5625 C 84.5625 19.480469 84.625 19.460938 84.679688 19.488281 Z M 84.605469 19.265625 C 84.597656 19.316406 84.59375 19.371094 84.53125 19.363281 C 84.527344 19.355469 84.519531 19.34375 84.507812 19.339844 C 84.515625 19.292969 84.554688 19.230469 84.605469 19.265625 Z M 84.691406 18.660156 C 84.660156 18.75 84.582031 18.789062 84.519531 18.847656 C 84.496094 18.75 84.546875 18.628906 84.691406 18.660156 Z M 84.628906 18.316406 C 84.644531 18.320312 84.648438 18.339844 84.667969 18.339844 C 84.632812 18.433594 84.664062 18.4375 84.691406 18.515625 C 84.679688 18.523438 84.660156 18.53125 84.628906 18.527344 C 84.601562 18.457031 84.546875 18.367188 84.628906 18.316406 Z M 84.394531 18.195312 C 84.433594 18.195312 84.433594 18.28125 84.382812 18.265625 C 84.355469 18.242188 84.382812 18.214844 84.394531 18.195312 Z M 84.433594 17.710938 C 84.476562 17.804688 84.425781 17.980469 84.457031 18.105469 C 84.375 18.070312 84.320312 17.75 84.433594 17.710938 Z M 84.296875 17.625 C 84.304688 17.691406 84.273438 17.71875 84.210938 17.710938 C 84.175781 17.652344 84.246094 17.601562 84.296875 17.625 Z M 84.222656 16.972656 C 84.230469 17.039062 84.113281 17.015625 84.125 16.960938 C 84.171875 16.964844 84.199219 16.933594 84.222656 16.972656 Z M 84.175781 16.738281 C 84.167969 16.796875 84.132812 16.832031 84.078125 16.839844 C 84.058594 16.800781 84.105469 16.734375 84.175781 16.738281 Z M 83.78125 14.683594 C 83.800781 14.675781 83.800781 14.691406 83.816406 14.695312 C 83.820312 14.753906 83.789062 14.792969 83.816406 14.839844 C 83.753906 14.832031 83.742188 14.722656 83.78125 14.683594 Z M 99.074219 12.734375 C 99.054688 12.804688 99.0625 12.839844 99.085938 12.894531 C 99.074219 12.898438 99.0625 12.90625 99.058594 12.917969 C 98.957031 12.929688 98.957031 12.667969 99.074219 12.734375 Z M 98.605469 12.339844 C 98.625 12.382812 98.640625 12.441406 98.605469 12.476562 C 98.484375 12.507812 98.46875 12.300781 98.605469 12.339844 Z M 98.503906 12.128906 C 98.550781 12.152344 98.53125 12.175781 98.53125 12.230469 C 98.457031 12.246094 98.476562 12.148438 98.503906 12.128906 Z M 98.417969 11.882812 C 98.378906 11.882812 98.355469 11.859375 98.359375 11.8125 C 98.390625 11.78125 98.460938 11.84375 98.417969 11.882812 Z M 98.640625 11.847656 C 98.625 11.84375 98.621094 11.851562 98.617188 11.859375 C 98.578125 11.859375 98.5625 11.832031 98.566406 11.785156 C 98.605469 11.765625 98.652344 11.785156 98.640625 11.847656 Z M 98.246094 11.601562 C 98.257812 11.601562 98.269531 11.601562 98.28125 11.601562 C 98.285156 11.632812 98.277344 11.652344 98.246094 11.652344 C 98.246094 11.632812 98.246094 11.617188 98.246094 11.601562 Z M 97.828125 11.515625 C 97.789062 11.527344 97.796875 11.519531 97.765625 11.503906 C 97.765625 11.464844 97.839844 11.46875 97.828125 11.515625 Z M 91.160156 11.480469 C 91.136719 11.503906 91.105469 11.480469 91.085938 11.464844 C 91.085938 11.429688 91.175781 11.429688 91.160156 11.480469 Z M 98.34375 11.402344 C 98.378906 11.402344 98.410156 11.402344 98.445312 11.402344 C 98.464844 11.429688 98.484375 11.503906 98.457031 11.539062 C 98.375 11.542969 98.3125 11.480469 98.34375 11.402344 Z M 98.074219 11.269531 C 98.0625 11.398438 98.011719 11.484375 97.863281 11.476562 C 97.886719 11.367188 97.953125 11.238281 98.074219 11.269531 Z M 97.65625 11.183594 C 97.660156 11.222656 97.644531 11.238281 97.640625 11.269531 C 97.582031 11.277344 97.5625 11.242188 97.570312 11.183594 C 97.585938 11.164062 97.636719 11.164062 97.65625 11.183594 Z M 97.53125 11.011719 C 97.515625 11.007812 97.511719 11.011719 97.507812 11.019531 C 97.339844 10.964844 97.59375 10.832031 97.53125 11.011719 Z M 91.074219 10.457031 C 91.082031 10.523438 90.964844 10.511719 90.941406 10.480469 C 90.925781 10.40625 91.054688 10.421875 91.074219 10.457031 Z M 91.160156 10.085938 C 91.160156 10.117188 91.144531 10.132812 91.113281 10.132812 C 91.105469 10.125 91.101562 10.113281 91.085938 10.109375 C 91.089844 10.078125 91.128906 10.085938 91.160156 10.085938 Z M 91.085938 10.085938 C 90.949219 10.117188 90.898438 9.945312 90.976562 9.875 C 91.0625 9.898438 91.035156 10.03125 91.085938 10.085938 Z M 90.679688 9.507812 C 90.695312 9.511719 90.699219 9.527344 90.71875 9.53125 C 90.699219 9.578125 90.597656 9.59375 90.558594 9.582031 C 90.558594 9.515625 90.648438 9.539062 90.679688 9.507812 Z M 91.148438 9.371094 C 91.175781 9.382812 91.1875 9.40625 91.1875 9.445312 C 91.148438 9.445312 91.148438 9.40625 91.148438 9.371094 Z M 91.050781 9.394531 C 91.015625 9.40625 90.953125 9.4375 90.914062 9.40625 C 90.894531 9.316406 91.074219 9.28125 91.050781 9.394531 Z M 104.875 9.222656 C 104.875 9.253906 104.894531 9.257812 104.886719 9.296875 C 104.867188 9.332031 104.785156 9.332031 104.765625 9.296875 C 104.742188 9.210938 104.820312 9.195312 104.875 9.222656 Z M 105.074219 9 C 105.070312 9.042969 105.011719 9.066406 104.972656 9.039062 C 104.960938 8.953125 105.050781 8.949219 105.074219 9 Z M 91.285156 8.941406 C 91.242188 9.042969 91.167969 9.171875 91.050781 9.160156 C 91.054688 9.070312 91.191406 8.941406 91.285156 8.941406 Z M 91.011719 8.902344 C 91.0625 8.902344 91.023438 8.992188 91.050781 9.011719 C 91.035156 9.027344 91.007812 9.027344 90.976562 9.027344 C 90.945312 8.972656 90.988281 8.9375 91.011719 8.902344 Z M 105.074219 8.609375 C 105.082031 8.679688 104.921875 8.671875 104.914062 8.617188 C 104.910156 8.554688 105.0625 8.550781 105.074219 8.609375 Z M 104.949219 8.25 C 104.957031 8.292969 104.941406 8.3125 104.914062 8.324219 C 104.808594 8.320312 104.871094 8.191406 104.949219 8.25 Z M 91.125 8.1875 C 91.125 8.238281 91.078125 8.242188 91.027344 8.238281 C 91.011719 8.222656 91.011719 8.191406 91.011719 8.164062 C 91.042969 8.140625 91.121094 8.148438 91.125 8.1875 Z M 105.058594 7.804688 C 105.058594 7.890625 105.15625 7.875 105.132812 7.976562 C 105.003906 8.125 104.863281 7.8125 105.058594 7.804688 Z M 91.285156 7.804688 C 91.320312 7.851562 91.394531 7.859375 91.433594 7.902344 C 91.402344 8.035156 91.207031 7.921875 91.285156 7.804688 Z M 91.101562 7.585938 C 91.148438 7.597656 91.097656 7.632812 91.0625 7.632812 C 91.0625 7.621094 91.0625 7.609375 91.0625 7.597656 C 91.082031 7.597656 91.097656 7.597656 91.101562 7.585938 Z M 105.132812 7.484375 C 105.132812 7.515625 105.132812 7.542969 105.132812 7.570312 C 105.0625 7.628906 104.964844 7.570312 104.972656 7.472656 C 105.007812 7.40625 105.097656 7.453125 105.132812 7.484375 Z M 105.074219 7.300781 C 105.058594 7.300781 105.0625 7.316406 105.058594 7.324219 C 104.878906 7.40625 104.90625 7.109375 105 7.117188 C 105.054688 7.121094 105.046875 7.246094 105.074219 7.300781 Z M 105.28125 7.066406 C 105.257812 7.078125 105.242188 7.097656 105.195312 7.089844 C 105.105469 7 105.308594 6.90625 105.28125 7.066406 Z M 91.171875 6.945312 C 91.210938 6.945312 91.207031 7.058594 91.1875 7.078125 C 91.128906 7.066406 91.164062 6.988281 91.171875 6.945312 Z M 80.859375 6.5625 C 80.902344 6.570312 80.941406 6.585938 80.957031 6.621094 C 80.96875 6.65625 80.933594 6.648438 80.933594 6.671875 C 80.867188 6.675781 80.804688 6.609375 80.859375 6.5625 Z M 91.273438 6.363281 C 91.277344 6.4375 91.15625 6.417969 91.125 6.390625 C 91.101562 6.304688 91.265625 6.308594 91.273438 6.363281 Z M 81.132812 6.363281 C 81.113281 6.367188 81.113281 6.386719 81.09375 6.390625 C 81.058594 6.390625 81.050781 6.367188 81.03125 6.351562 C 81.027344 6.273438 81.152344 6.269531 81.132812 6.363281 Z M 105.304688 6.277344 C 105.285156 6.375 105.359375 6.460938 105.234375 6.476562 C 105.210938 6.457031 105.191406 6.4375 105.171875 6.414062 C 105.1875 6.34375 105.246094 6.261719 105.304688 6.277344 Z M 91.257812 5.746094 C 91.265625 5.800781 91.21875 5.796875 91.1875 5.808594 C 91.191406 5.773438 91.214844 5.746094 91.257812 5.746094 Z M 105.542969 1.410156 C 105.601562 1.402344 105.632812 1.476562 105.601562 1.519531 C 105.542969 1.527344 105.511719 1.453125 105.542969 1.410156 Z M 105.789062 1.027344 C 105.816406 1.085938 105.847656 1.167969 105.773438 1.203125 C 105.644531 1.21875 105.613281 0.988281 105.789062 1.027344 Z M 106.578125 0.511719 C 106.539062 0.535156 106.53125 0.550781 106.476562 0.535156 C 106.367188 0.417969 106.609375 0.328125 106.578125 0.511719 Z M 105.910156 0.425781 C 105.910156 0.492188 105.835938 0.472656 105.800781 0.449219 C 105.800781 0.4375 105.800781 0.425781 105.800781 0.414062 C 105.832031 0.382812 105.886719 0.40625 105.910156 0.425781 Z M 105.910156 0.425781 " fill-opacity="1" fill-rule="evenodd"/></g></svg>